<?xml version="1.0" encoding="UTF-8" standalone="no"?>
<!DOCTYPE svg PUBLIC "-//W3C//DTD SVG 1.1//EN"
 "http://www.w3.org/Graphics/SVG/1.1/DTD/svg11.dtd">
<!-- Generated by graphviz version 2.43.0 (0)
 -->
<!-- Title: parent Pages: 1 -->
<svg width="1856pt" height="2202pt"
 viewBox="0.00 0.00 1856.00 2202.00" xmlns="http://www.w3.org/2000/svg" xmlns:xlink="http://www.w3.org/1999/xlink">
<g id="graph0" class="graph" transform="scale(1 1) rotate(0) translate(4 2198)">
<title>parent</title>
<polygon fill="white" stroke="transparent" points="-4,4 -4,-2198 1852,-2198 1852,4 -4,4"/>
<g id="clust1" class="cluster">
<title>cluster_implicit_rate_1_input</title>
</g>
<g id="clust2" class="cluster">
<title>cluster_implicit_rate_1_input_state</title>
<path fill="none" stroke="black" stroke-dasharray="5,2" d="M679,-2068C679,-2068 1107,-2068 1107,-2068 1113,-2068 1119,-2074 1119,-2080 1119,-2080 1119,-2166 1119,-2166 1119,-2172 1113,-2178 1107,-2178 1107,-2178 679,-2178 679,-2178 673,-2178 667,-2172 667,-2166 667,-2166 667,-2080 667,-2080 667,-2074 673,-2068 679,-2068"/>
<text text-anchor="middle" x="893" y="-2154.8" font-family="Times,serif" font-size="24.00">state</text>
</g>
<g id="clust3" class="cluster">
<title>cluster_implicit_rate_1_input_old_state</title>
<path fill="none" stroke="black" stroke-dasharray="5,2" d="M1139,-2068C1139,-2068 1567,-2068 1567,-2068 1573,-2068 1579,-2074 1579,-2080 1579,-2080 1579,-2166 1579,-2166 1579,-2172 1573,-2178 1567,-2178 1567,-2178 1139,-2178 1139,-2178 1133,-2178 1127,-2172 1127,-2166 1127,-2166 1127,-2080 1127,-2080 1127,-2074 1133,-2068 1139,-2068"/>
<text text-anchor="middle" x="1353" y="-2154.8" font-family="Times,serif" font-size="24.00">old_state</text>
</g>
<g id="clust4" class="cluster">
<title>cluster_implicit_rate_1_input_forces</title>
<path fill="none" stroke="black" stroke-dasharray="5,2" d="M28,-2068C28,-2068 647,-2068 647,-2068 653,-2068 659,-2074 659,-2080 659,-2080 659,-2166 659,-2166 659,-2172 653,-2178 647,-2178 647,-2178 28,-2178 28,-2178 22,-2178 16,-2172 16,-2166 16,-2166 16,-2080 16,-2080 16,-2074 22,-2068 28,-2068"/>
<text text-anchor="middle" x="337.5" y="-2154.8" font-family="Times,serif" font-size="24.00">forces</text>
</g>
<g id="clust5" class="cluster">
<title>cluster_implicit_rate_1_input_old_forces</title>
<path fill="none" stroke="black" stroke-dasharray="5,2" d="M1599,-2068C1599,-2068 1715,-2068 1715,-2068 1721,-2068 1727,-2074 1727,-2080 1727,-2080 1727,-2166 1727,-2166 1727,-2172 1721,-2178 1715,-2178 1715,-2178 1599,-2178 1599,-2178 1593,-2178 1587,-2172 1587,-2166 1587,-2166 1587,-2080 1587,-2080 1587,-2074 1593,-2068 1599,-2068"/>
<text text-anchor="middle" x="1657" y="-2154.8" font-family="Times,serif" font-size="24.00">old_forces</text>
</g>
<g id="clust6" class="cluster">
<title>cluster_implicit_rate_1_output</title>
</g>
<g id="clust7" class="cluster">
<title>cluster_implicit_rate_1_output_residual</title>
<path fill="none" stroke="black" stroke-dasharray="5,2" d="M1029,-16C1029,-16 1457,-16 1457,-16 1463,-16 1469,-22 1469,-28 1469,-28 1469,-114 1469,-114 1469,-120 1463,-126 1457,-126 1457,-126 1029,-126 1029,-126 1023,-126 1017,-120 1017,-114 1017,-114 1017,-28 1017,-28 1017,-22 1023,-16 1029,-16"/>
<text text-anchor="middle" x="1243" y="-26.8" font-family="Times,serif" font-size="24.00">residual</text>
</g>
<g id="clust8" class="cluster">
<title>cluster_elastic_stretch</title>
<polygon fill="#f2f2f2" stroke="transparent" points="90,-564 90,-844 420,-844 420,-564 90,-564"/>
</g>
<g id="clust9" class="cluster">
<title>cluster_elastic_stretch_output</title>
<polygon fill="#f2f2f2" stroke="transparent" points="188,-572 188,-686 382,-686 382,-572 188,-572"/>
</g>
<g id="clust10" class="cluster">
<title>cluster_elastic_stretch_output_state</title>
<path fill="#f2f2f2" stroke="black" stroke-dasharray="5,2" d="M208,-580C208,-580 362,-580 362,-580 368,-580 374,-586 374,-592 374,-592 374,-666 374,-666 374,-672 368,-678 362,-678 362,-678 208,-678 208,-678 202,-678 196,-672 196,-666 196,-666 196,-592 196,-592 196,-586 202,-580 208,-580"/>
<text text-anchor="middle" x="285" y="-590.8" font-family="Times,serif" font-size="24.00">state</text>
</g>
<g id="clust11" class="cluster">
<title>cluster_elasticity_1</title>
<polygon fill="#f2f2f2" stroke="transparent" points="538,-1659 538,-1939 970,-1939 970,-1659 538,-1659"/>
</g>
<g id="clust12" class="cluster">
<title>cluster_elasticity_1_output</title>
<polygon fill="#f2f2f2" stroke="transparent" points="641,-1667 641,-1781 867,-1781 867,-1667 641,-1667"/>
</g>
<g id="clust13" class="cluster">
<title>cluster_elasticity_1_output_state</title>
<path fill="#f2f2f2" stroke="black" stroke-dasharray="5,2" d="M661,-1675C661,-1675 847,-1675 847,-1675 853,-1675 859,-1681 859,-1687 859,-1687 859,-1761 859,-1761 859,-1767 853,-1773 847,-1773 847,-1773 661,-1773 661,-1773 655,-1773 649,-1767 649,-1761 649,-1761 649,-1687 649,-1687 649,-1681 655,-1675 661,-1675"/>
<text text-anchor="middle" x="754" y="-1685.8" font-family="Times,serif" font-size="24.00">state</text>
</g>
<g id="clust14" class="cluster">
<title>cluster_euler_rodrigues_1</title>
<polygon fill="#f2f2f2" stroke="transparent" points="204,-1659 204,-1939 530,-1939 530,-1659 204,-1659"/>
</g>
<g id="clust15" class="cluster">
<title>cluster_euler_rodrigues_1_output</title>
<polygon fill="#f2f2f2" stroke="transparent" points="287,-1667 287,-1781 477,-1781 477,-1667 287,-1667"/>
</g>
<g id="clust16" class="cluster">
<title>cluster_euler_rodrigues_1_output_state</title>
<path fill="#f2f2f2" stroke="black" stroke-dasharray="5,2" d="M307,-1675C307,-1675 457,-1675 457,-1675 463,-1675 469,-1681 469,-1687 469,-1687 469,-1761 469,-1761 469,-1767 463,-1773 457,-1773 457,-1773 307,-1773 307,-1773 301,-1773 295,-1767 295,-1761 295,-1761 295,-1687 295,-1687 295,-1681 301,-1675 307,-1675"/>
<text text-anchor="middle" x="382" y="-1685.8" font-family="Times,serif" font-size="24.00">state</text>
</g>
<g id="clust17" class="cluster">
<title>cluster_integrate_elastic_strain</title>
<polygon fill="#f2f2f2" stroke="transparent" points="446,-205 446,-479 1064,-479 1064,-205 446,-205"/>
</g>
<g id="clust18" class="cluster">
<title>cluster_integrate_elastic_strain_output</title>
<polygon fill="#f2f2f2" stroke="transparent" points="760,-213 760,-327 912,-327 912,-213 760,-213"/>
</g>
<g id="clust19" class="cluster">
<title>cluster_integrate_elastic_strain_output_residual</title>
<path fill="#f2f2f2" stroke="black" stroke-dasharray="5,2" d="M780,-221C780,-221 892,-221 892,-221 898,-221 904,-227 904,-233 904,-233 904,-307 904,-307 904,-313 898,-319 892,-319 892,-319 780,-319 780,-319 774,-319 768,-313 768,-307 768,-307 768,-233 768,-233 768,-227 774,-221 780,-221"/>
<text text-anchor="middle" x="836" y="-231.8" font-family="Times,serif" font-size="24.00">residual</text>
</g>
<g id="clust20" class="cluster">
<title>cluster_integrate_slip_hardening</title>
<polygon fill="#f2f2f2" stroke="transparent" points="1190,-205 1190,-479 1840,-479 1840,-205 1190,-205"/>
</g>
<g id="clust21" class="cluster">
<title>cluster_integrate_slip_hardening_output</title>
<polygon fill="#f2f2f2" stroke="transparent" points="1300,-213 1300,-327 1526,-327 1526,-213 1300,-213"/>
</g>
<g id="clust22" class="cluster">
<title>cluster_integrate_slip_hardening_output_residual</title>
<path fill="#f2f2f2" stroke="black" stroke-dasharray="5,2" d="M1320,-221C1320,-221 1506,-221 1506,-221 1512,-221 1518,-227 1518,-233 1518,-233 1518,-307 1518,-307 1518,-313 1512,-319 1506,-319 1506,-319 1320,-319 1320,-319 1314,-319 1308,-313 1308,-307 1308,-307 1308,-233 1308,-233 1308,-227 1314,-221 1320,-221"/>
<text text-anchor="middle" x="1413" y="-231.8" font-family="Times,serif" font-size="24.00">residual</text>
</g>
<g id="clust23" class="cluster">
<title>cluster_plastic_deformation_rate</title>
<polygon fill="#f2f2f2" stroke="transparent" points="166,-923 166,-1209 598,-1209 598,-923 166,-923"/>
</g>
<g id="clust24" class="cluster">
<title>cluster_plastic_deformation_rate_output</title>
<polygon fill="#f2f2f2" stroke="transparent" points="178,-931 178,-1057 578,-1057 578,-931 178,-931"/>
</g>
<g id="clust25" class="cluster">
<title>cluster_plastic_deformation_rate_output_state</title>
<path fill="#f2f2f2" stroke="black" stroke-dasharray="5,2" d="M198,-939C198,-939 558,-939 558,-939 564,-939 570,-945 570,-951 570,-951 570,-1037 570,-1037 570,-1043 564,-1049 558,-1049 558,-1049 198,-1049 198,-1049 192,-1049 186,-1043 186,-1037 186,-1037 186,-951 186,-951 186,-945 192,-939 198,-939"/>
<text text-anchor="middle" x="378" y="-949.8" font-family="Times,serif" font-size="24.00">state</text>
</g>
<g id="clust26" class="cluster">
<title>cluster_resolved_shear</title>
<polygon fill="#f2f2f2" stroke="transparent" points="604,-1294 604,-1574 904,-1574 904,-1294 604,-1294"/>
</g>
<g id="clust27" class="cluster">
<title>cluster_resolved_shear_output</title>
<polygon fill="#f2f2f2" stroke="transparent" points="643,-1302 643,-1416 885,-1416 885,-1302 643,-1302"/>
</g>
<g id="clust28" class="cluster">
<title>cluster_resolved_shear_output_state</title>
<path fill="#f2f2f2" stroke="black" stroke-dasharray="5,2" d="M663,-1310C663,-1310 865,-1310 865,-1310 871,-1310 877,-1316 877,-1322 877,-1322 877,-1396 877,-1396 877,-1402 871,-1408 865,-1408 865,-1408 663,-1408 663,-1408 657,-1408 651,-1402 651,-1396 651,-1396 651,-1322 651,-1322 651,-1316 657,-1310 663,-1310"/>
<text text-anchor="middle" x="764" y="-1320.8" font-family="Times,serif" font-size="24.00">state</text>
</g>
<g id="clust29" class="cluster">
<title>cluster_slip_rule</title>
<polygon fill="#f2f2f2" stroke="transparent" points="925,-1288 925,-1574 1283,-1574 1283,-1288 925,-1288"/>
</g>
<g id="clust30" class="cluster">
<title>cluster_slip_rule_output</title>
<polygon fill="#f2f2f2" stroke="transparent" points="985,-1296 985,-1422 1223,-1422 1223,-1296 985,-1296"/>
</g>
<g id="clust31" class="cluster">
<title>cluster_slip_rule_output_state</title>
<path fill="#f2f2f2" stroke="black" stroke-dasharray="5,2" d="M1005,-1304C1005,-1304 1203,-1304 1203,-1304 1209,-1304 1215,-1310 1215,-1316 1215,-1316 1215,-1402 1215,-1402 1215,-1408 1209,-1414 1203,-1414 1203,-1414 1005,-1414 1005,-1414 999,-1414 993,-1408 993,-1402 993,-1402 993,-1316 993,-1316 993,-1310 999,-1304 1005,-1304"/>
<text text-anchor="middle" x="1104" y="-1314.8" font-family="Times,serif" font-size="24.00">state</text>
</g>
<g id="clust32" class="cluster">
<title>cluster_slip_strength</title>
<polygon fill="#f2f2f2" stroke="transparent" points="978,-1653 978,-1939 1400,-1939 1400,-1653 978,-1653"/>
</g>
<g id="clust33" class="cluster">
<title>cluster_slip_strength_output</title>
<polygon fill="#f2f2f2" stroke="transparent" points="1035,-1661 1035,-1787 1319,-1787 1319,-1661 1035,-1661"/>
</g>
<g id="clust34" class="cluster">
<title>cluster_slip_strength_output_state</title>
<path fill="#f2f2f2" stroke="black" stroke-dasharray="5,2" d="M1055,-1669C1055,-1669 1299,-1669 1299,-1669 1305,-1669 1311,-1675 1311,-1681 1311,-1681 1311,-1767 1311,-1767 1311,-1773 1305,-1779 1299,-1779 1299,-1779 1055,-1779 1055,-1779 1049,-1779 1043,-1773 1043,-1767 1043,-1767 1043,-1681 1043,-1681 1043,-1675 1049,-1669 1055,-1669"/>
<text text-anchor="middle" x="1177" y="-1679.8" font-family="Times,serif" font-size="24.00">state</text>
</g>
<g id="clust35" class="cluster">
<title>cluster_sum_slip_rates</title>
<polygon fill="#f2f2f2" stroke="transparent" points="1035,-929 1035,-1209 1317,-1209 1317,-929 1035,-929"/>
</g>
<g id="clust36" class="cluster">
<title>cluster_sum_slip_rates_output</title>
<polygon fill="#f2f2f2" stroke="transparent" points="1067,-937 1067,-1051 1299,-1051 1299,-937 1067,-937"/>
</g>
<g id="clust37" class="cluster">
<title>cluster_sum_slip_rates_output_state</title>
<path fill="#f2f2f2" stroke="black" stroke-dasharray="5,2" d="M1087,-945C1087,-945 1279,-945 1279,-945 1285,-945 1291,-951 1291,-957 1291,-957 1291,-1031 1291,-1031 1291,-1037 1285,-1043 1279,-1043 1279,-1043 1087,-1043 1087,-1043 1081,-1043 1075,-1037 1075,-1031 1075,-1031 1075,-957 1075,-957 1075,-951 1081,-945 1087,-945"/>
<text text-anchor="middle" x="1183" y="-955.8" font-family="Times,serif" font-size="24.00">state</text>
</g>
<g id="clust38" class="cluster">
<title>cluster_voce_hardening</title>
<polygon fill="#f2f2f2" stroke="transparent" points="938,-558 938,-844 1476,-844 1476,-558 938,-558"/>
</g>
<g id="clust39" class="cluster">
<title>cluster_voce_hardening_output</title>
<polygon fill="#f2f2f2" stroke="transparent" points="1076,-566 1076,-692 1424,-692 1424,-566 1076,-566"/>
</g>
<g id="clust40" class="cluster">
<title>cluster_voce_hardening_output_state</title>
<path fill="#f2f2f2" stroke="black" stroke-dasharray="5,2" d="M1096,-574C1096,-574 1404,-574 1404,-574 1410,-574 1416,-580 1416,-586 1416,-586 1416,-672 1416,-672 1416,-678 1410,-684 1404,-684 1404,-684 1096,-684 1096,-684 1090,-684 1084,-678 1084,-672 1084,-672 1084,-586 1084,-586 1084,-580 1090,-574 1096,-574"/>
<text text-anchor="middle" x="1250" y="-584.8" font-family="Times,serif" font-size="24.00">state</text>
</g>
<!-- implicit_rate_1_input_state/elastic_strain -->
<g id="node1" class="node">
<title>implicit_rate_1_input_state/elastic_strain</title>
<polygon fill="#005401" fill-opacity="0.082353" stroke="#005401" stroke-opacity="0.313725" points="833,-2136 675,-2136 675,-2076 833,-2076 833,-2136"/>
<text text-anchor="middle" x="754" y="-2112.8" font-family="Arial" font-size="24.00">elastic_strain</text>
<text text-anchor="middle" x="754" y="-2086.8" font-family="Arial" font-size="24.00">[SR2]</text>
</g>
<!-- elastic_stretch -->
<g id="node12" class="node">
<title>elastic_stretch</title>
<polygon fill="#bf0036" fill-opacity="0.313725" stroke="#bf0036" stroke-width="2" points="412,-836 98,-836 98,-748 412,-748 412,-836"/>
<text text-anchor="middle" x="255" y="-803.2" font-family="Arial" font-size="36.00">elastic_stretch</text>
<text text-anchor="middle" x="255" y="-763.2" font-family="Arial" font-size="36.00">[ElasticStrainRate]</text>
</g>
<!-- implicit_rate_1_input_state/elastic_strain&#45;&gt;elastic_stretch -->
<g id="edge3" class="edge">
<title>implicit_rate_1_input_state/elastic_strain&#45;&gt;elastic_stretch</title>
<path fill="none" stroke="black" d="M702.79,-2075.89C690.12,-2069.76 676.35,-2063.96 663,-2060 561.32,-2029.83 269.99,-2072.49 189,-2004 151.08,-1971.93 146,-1857.56 146,-1742 146,-1742 146,-1742 146,-1010 146,-952.2 177.27,-894.06 206.31,-852.53"/>
<polygon fill="none" stroke="black" points="211.97,-856.65 218.1,-836.36 200.66,-848.4 211.97,-856.65"/>
</g>
<!-- elasticity_1 -->
<g id="node15" class="node">
<title>elasticity_1</title>
<polygon fill="#bf0036" fill-opacity="0.313725" stroke="#bf0036" stroke-width="2" points="962,-1931 546,-1931 546,-1843 962,-1843 962,-1931"/>
<text text-anchor="middle" x="754" y="-1898.2" font-family="Arial" font-size="36.00">elasticity_1</text>
<text text-anchor="middle" x="754" y="-1858.2" font-family="Arial" font-size="36.00">[LinearIsotropicElasticity]</text>
</g>
<!-- implicit_rate_1_input_state/elastic_strain&#45;&gt;elasticity_1 -->
<g id="edge6" class="edge">
<title>implicit_rate_1_input_state/elastic_strain&#45;&gt;elasticity_1</title>
<path fill="none" stroke="black" d="M754,-2075.73C754,-2044.04 754,-1992.51 754,-1951.45"/>
<polygon fill="none" stroke="black" points="761,-1951.38 754,-1931.38 747,-1951.38 761,-1951.38"/>
</g>
<!-- integrate_elastic_strain -->
<g id="node19" class="node">
<title>integrate_elastic_strain</title>
<polygon fill="#bf0036" fill-opacity="0.313725" stroke="#bf0036" stroke-width="2" points="1055.5,-471 454.5,-471 454.5,-383 1055.5,-383 1055.5,-471"/>
<text text-anchor="middle" x="755" y="-438.2" font-family="Arial" font-size="36.00">integrate_elastic_strain</text>
<text text-anchor="middle" x="755" y="-398.2" font-family="Arial" font-size="36.00">[SR2BackwardEulerTimeIntegration]</text>
</g>
<!-- implicit_rate_1_input_state/elastic_strain&#45;&gt;integrate_elastic_strain -->
<g id="edge13" class="edge">
<title>implicit_rate_1_input_state/elastic_strain&#45;&gt;integrate_elastic_strain</title>
<path fill="none" stroke="black" d="M699.46,-2075.79C687.63,-2070.09 675.05,-2064.5 663,-2060 463.75,-1985.59 330,-2107.34 200,-1939 134.26,-1853.87 286.49,-1660.72 291,-1653 412.56,-1444.99 520.28,-1435.65 602,-1209 631.79,-1126.36 618,-1099.84 618,-1012 618,-1012 618,-1012 618,-645 618,-584.16 656.98,-526.48 693.36,-485.9"/>
<polygon fill="none" stroke="black" points="698.54,-490.61 707.08,-471.22 688.31,-481.05 698.54,-490.61"/>
</g>
<!-- implicit_rate_1_input_state/internal/slip_hardening -->
<g id="node2" class="node">
<title>implicit_rate_1_input_state/internal/slip_hardening</title>
<polygon fill="#005401" fill-opacity="0.082353" stroke="#005401" stroke-opacity="0.313725" points="1111,-2136 851,-2136 851,-2076 1111,-2076 1111,-2136"/>
<text text-anchor="middle" x="981" y="-2112.8" font-family="Arial" font-size="24.00">internal/slip_hardening</text>
<text text-anchor="middle" x="981" y="-2086.8" font-family="Arial" font-size="24.00">[Scalar]</text>
</g>
<!-- integrate_slip_hardening -->
<g id="node21" class="node">
<title>integrate_slip_hardening</title>
<polygon fill="#bf0036" fill-opacity="0.313725" stroke="#bf0036" stroke-width="2" points="1831.5,-471 1198.5,-471 1198.5,-383 1831.5,-383 1831.5,-471"/>
<text text-anchor="middle" x="1515" y="-438.2" font-family="Arial" font-size="36.00">integrate_slip_hardening</text>
<text text-anchor="middle" x="1515" y="-398.2" font-family="Arial" font-size="36.00">[ScalarBackwardEulerTimeIntegration]</text>
</g>
<!-- implicit_rate_1_input_state/internal/slip_hardening&#45;&gt;integrate_slip_hardening -->
<g id="edge20" class="edge">
<title>implicit_rate_1_input_state/internal/slip_hardening&#45;&gt;integrate_slip_hardening</title>
<path fill="none" stroke="black" d="M1066.07,-2075.97C1084.7,-2070.2 1104.41,-2064.53 1123,-2060 1265.42,-2025.34 1333.53,-2095.54 1448,-2004 1491.58,-1969.15 1496,-1943.8 1496,-1888 1496,-1888 1496,-1888 1496,-1521 1496,-1358.79 1534,-1320.21 1534,-1158 1534,-1158 1534,-1158 1534,-645 1534,-593 1528.52,-534.26 1523.44,-491.02"/>
<polygon fill="none" stroke="black" points="1530.39,-490.14 1521.01,-471.13 1516.49,-491.84 1530.39,-490.14"/>
</g>
<!-- slip_strength -->
<g id="node30" class="node">
<title>slip_strength</title>
<polygon fill="#bf0036" fill-opacity="0.313725" stroke="#bf0036" stroke-width="2" points="1391.5,-1931 986.5,-1931 986.5,-1843 1391.5,-1843 1391.5,-1931"/>
<text text-anchor="middle" x="1189" y="-1898.2" font-family="Arial" font-size="36.00">slip_strength</text>
<text text-anchor="middle" x="1189" y="-1858.2" font-family="Arial" font-size="36.00">[SingleSlipStrengthMap]</text>
</g>
<!-- implicit_rate_1_input_state/internal/slip_hardening&#45;&gt;slip_strength -->
<g id="edge33" class="edge">
<title>implicit_rate_1_input_state/internal/slip_hardening&#45;&gt;slip_strength</title>
<path fill="none" stroke="black" d="M1009.05,-2075.73C1040.82,-2042.59 1093.39,-1987.75 1133.52,-1945.88"/>
<polygon fill="none" stroke="black" points="1138.63,-1950.66 1147.42,-1931.38 1128.52,-1940.98 1138.63,-1950.66"/>
</g>
<!-- voce_hardening -->
<g id="node33" class="node">
<title>voce_hardening</title>
<polygon fill="#bf0036" fill-opacity="0.313725" stroke="#bf0036" stroke-width="2" points="1467.5,-836 946.5,-836 946.5,-748 1467.5,-748 1467.5,-836"/>
<text text-anchor="middle" x="1207" y="-803.2" font-family="Arial" font-size="36.00">voce_hardening</text>
<text text-anchor="middle" x="1207" y="-763.2" font-family="Arial" font-size="36.00">[VoceSingleSlipHardeningRule]</text>
</g>
<!-- implicit_rate_1_input_state/internal/slip_hardening&#45;&gt;voce_hardening -->
<g id="edge37" class="edge">
<title>implicit_rate_1_input_state/internal/slip_hardening&#45;&gt;voce_hardening</title>
<path fill="none" stroke="black" d="M1066.47,-2075.96C1084.99,-2070.22 1104.55,-2064.56 1123,-2060 1259.34,-2026.27 1333.41,-2102.02 1434,-2004 1471.71,-1967.26 1458,-1940.65 1458,-1888 1458,-1888 1458,-1888 1458,-1010 1458,-935.89 1394.61,-881.46 1331.54,-845.65"/>
<polygon fill="none" stroke="black" points="1334.73,-839.42 1313.81,-836.04 1328.06,-851.73 1334.73,-839.42"/>
</g>
<!-- implicit_rate_1_input_old_state/elastic_strain -->
<g id="node3" class="node">
<title>implicit_rate_1_input_old_state/elastic_strain</title>
<polygon fill="#005401" fill-opacity="0.082353" stroke="#005401" stroke-opacity="0.313725" points="1293,-2136 1135,-2136 1135,-2076 1293,-2076 1293,-2136"/>
<text text-anchor="middle" x="1214" y="-2112.8" font-family="Arial" font-size="24.00">elastic_strain</text>
<text text-anchor="middle" x="1214" y="-2086.8" font-family="Arial" font-size="24.00">[SR2]</text>
</g>
<!-- implicit_rate_1_input_old_state/elastic_strain&#45;&gt;integrate_elastic_strain -->
<g id="edge12" class="edge">
<title>implicit_rate_1_input_old_state/elastic_strain&#45;&gt;integrate_elastic_strain</title>
<path fill="none" stroke="black" d="M1266.7,-2075.8C1278.13,-2070.1 1290.31,-2064.5 1302,-2060 1391.33,-2025.57 1444.33,-2073.66 1510,-2004 1546.11,-1965.69 1534,-1940.65 1534,-1888 1534,-1888 1534,-1888 1534,-1521 1534,-1346.86 1374,-1367.36 1219,-1288 1116.41,-1235.47 1051.91,-1292.05 972,-1209 775.51,-1004.79 753.87,-638.57 753.59,-491.6"/>
<polygon fill="none" stroke="black" points="760.59,-491.18 753.68,-471.15 746.59,-491.12 760.59,-491.18"/>
</g>
<!-- implicit_rate_1_input_old_state/internal/slip_hardening -->
<g id="node4" class="node">
<title>implicit_rate_1_input_old_state/internal/slip_hardening</title>
<polygon fill="#005401" fill-opacity="0.082353" stroke="#005401" stroke-opacity="0.313725" points="1571,-2136 1311,-2136 1311,-2076 1571,-2076 1571,-2136"/>
<text text-anchor="middle" x="1441" y="-2112.8" font-family="Arial" font-size="24.00">internal/slip_hardening</text>
<text text-anchor="middle" x="1441" y="-2086.8" font-family="Arial" font-size="24.00">[Scalar]</text>
</g>
<!-- implicit_rate_1_input_old_state/internal/slip_hardening&#45;&gt;integrate_slip_hardening -->
<g id="edge19" class="edge">
<title>implicit_rate_1_input_old_state/internal/slip_hardening&#45;&gt;integrate_slip_hardening</title>
<path fill="none" stroke="black" d="M1482.55,-2075.91C1505.31,-2057.8 1532.06,-2032.55 1548,-2004 1573.66,-1958.03 1572,-1940.65 1572,-1888 1572,-1888 1572,-1888 1572,-1521 1572,-1358.79 1610,-1320.21 1610,-1158 1610,-1158 1610,-1158 1610,-645 1610,-588.63 1582.77,-530.41 1557.46,-488.49"/>
<polygon fill="none" stroke="black" points="1563.21,-484.49 1546.63,-471.29 1551.36,-491.94 1563.21,-484.49"/>
</g>
<!-- implicit_rate_1_input_forces/deformation_rate -->
<g id="node5" class="node">
<title>implicit_rate_1_input_forces/deformation_rate</title>
<polygon fill="#005401" fill-opacity="0.082353" stroke="#005401" stroke-opacity="0.313725" points="224,-2136 24,-2136 24,-2076 224,-2076 224,-2136"/>
<text text-anchor="middle" x="124" y="-2112.8" font-family="Arial" font-size="24.00">deformation_rate</text>
<text text-anchor="middle" x="124" y="-2086.8" font-family="Arial" font-size="24.00">[SR2]</text>
</g>
<!-- implicit_rate_1_input_forces/deformation_rate&#45;&gt;elastic_stretch -->
<g id="edge1" class="edge">
<title>implicit_rate_1_input_forces/deformation_rate&#45;&gt;elastic_stretch</title>
<path fill="none" stroke="black" d="M97.69,-2075.82C64.87,-2036.27 13,-1962.05 13,-1888 13,-1888 13,-1888 13,-1010 13,-936.91 74.94,-882.23 136.15,-846.04"/>
<polygon fill="none" stroke="black" points="139.8,-852.03 153.77,-836.1 132.91,-839.84 139.8,-852.03"/>
</g>
<!-- implicit_rate_1_input_forces/t -->
<g id="node6" class="node">
<title>implicit_rate_1_input_forces/t</title>
<polygon fill="#005401" fill-opacity="0.082353" stroke="#005401" stroke-opacity="0.313725" points="651,-2136 553,-2136 553,-2076 651,-2076 651,-2136"/>
<text text-anchor="middle" x="602" y="-2112.8" font-family="Arial" font-size="24.00">t</text>
<text text-anchor="middle" x="602" y="-2086.8" font-family="Arial" font-size="24.00">[Scalar]</text>
</g>
<!-- implicit_rate_1_input_forces/t&#45;&gt;integrate_elastic_strain -->
<g id="edge10" class="edge">
<title>implicit_rate_1_input_forces/t&#45;&gt;integrate_elastic_strain</title>
<path fill="none" stroke="black" d="M571.03,-2075.92C563.05,-2069.79 554.13,-2063.98 545,-2060 396.58,-1995.26 325.77,-2084.02 185,-2004 126.82,-1970.93 89,-1954.92 89,-1888 89,-1888 89,-1888 89,-1156 89,-994.45 70,-954.55 70,-793 70,-793 70,-793 70,-645 70,-561.77 256.12,-506.34 434.33,-472.35"/>
<polygon fill="none" stroke="black" points="435.68,-479.22 454.05,-468.67 433.11,-465.46 435.68,-479.22"/>
</g>
<!-- implicit_rate_1_input_forces/t&#45;&gt;integrate_slip_hardening -->
<g id="edge17" class="edge">
<title>implicit_rate_1_input_forces/t&#45;&gt;integrate_slip_hardening</title>
<path fill="none" stroke="black" d="M635.42,-2076C643.94,-2069.87 653.42,-2064.04 663,-2060 980.96,-1926.05 1420,-2233.02 1420,-1888 1420,-1888 1420,-1888 1420,-1156 1420,-991.17 1496,-957.83 1496,-793 1496,-793 1496,-793 1496,-645 1496,-593 1501.48,-534.26 1506.56,-491.02"/>
<polygon fill="none" stroke="black" points="1513.51,-491.84 1508.99,-471.13 1499.61,-490.14 1513.51,-491.84"/>
</g>
<!-- implicit_rate_1_input_forces/vorticity -->
<g id="node7" class="node">
<title>implicit_rate_1_input_forces/vorticity</title>
<polygon fill="#005401" fill-opacity="0.082353" stroke="#005401" stroke-opacity="0.313725" points="340,-2136 242,-2136 242,-2076 340,-2076 340,-2136"/>
<text text-anchor="middle" x="291" y="-2112.8" font-family="Arial" font-size="24.00">vorticity</text>
<text text-anchor="middle" x="291" y="-2086.8" font-family="Arial" font-size="24.00">[WR2]</text>
</g>
<!-- implicit_rate_1_input_forces/vorticity&#45;&gt;elastic_stretch -->
<g id="edge2" class="edge">
<title>implicit_rate_1_input_forces/vorticity&#45;&gt;elastic_stretch</title>
<path fill="none" stroke="black" d="M257.29,-2075.97C249.61,-2070.19 241.28,-2064.52 233,-2060 167.63,-2024.27 123.96,-2060.15 75,-2004 40.4,-1964.32 51,-1940.65 51,-1888 51,-1888 51,-1888 51,-1156 51,-1040.05 69.69,-1005.79 132,-908 145.57,-886.71 163.98,-866.69 182.43,-849.52"/>
<polygon fill="none" stroke="black" points="187.21,-854.63 197.48,-836.09 177.89,-844.18 187.21,-854.63"/>
</g>
<!-- implicit_rate_1_input_forces/tmp/orientation -->
<g id="node8" class="node">
<title>implicit_rate_1_input_forces/tmp/orientation</title>
<polygon fill="#005401" fill-opacity="0.082353" stroke="#005401" stroke-opacity="0.313725" points="535.5,-2136 358.5,-2136 358.5,-2076 535.5,-2076 535.5,-2136"/>
<text text-anchor="middle" x="447" y="-2112.8" font-family="Arial" font-size="24.00">tmp/orientation</text>
<text text-anchor="middle" x="447" y="-2086.8" font-family="Arial" font-size="24.00">[Rot]</text>
</g>
<!-- euler_rodrigues_1 -->
<g id="node17" class="node">
<title>euler_rodrigues_1</title>
<polygon fill="#bf0036" fill-opacity="0.313725" stroke="#bf0036" stroke-width="2" points="522,-1931 212,-1931 212,-1843 522,-1843 522,-1931"/>
<text text-anchor="middle" x="367" y="-1898.2" font-family="Arial" font-size="36.00">euler_rodrigues_1</text>
<text text-anchor="middle" x="367" y="-1858.2" font-family="Arial" font-size="36.00">[RotationMatrix]</text>
</g>
<!-- implicit_rate_1_input_forces/tmp/orientation&#45;&gt;euler_rodrigues_1 -->
<g id="edge8" class="edge">
<title>implicit_rate_1_input_forces/tmp/orientation&#45;&gt;euler_rodrigues_1</title>
<path fill="none" stroke="black" d="M436.21,-2075.73C424.42,-2043.75 405.18,-1991.56 389.98,-1950.32"/>
<polygon fill="none" stroke="black" points="396.48,-1947.73 382.99,-1931.38 383.34,-1952.57 396.48,-1947.73"/>
</g>
<!-- implicit_rate_1_input_old_forces/t -->
<g id="node9" class="node">
<title>implicit_rate_1_input_old_forces/t</title>
<polygon fill="#005401" fill-opacity="0.082353" stroke="#005401" stroke-opacity="0.313725" points="1695,-2136 1597,-2136 1597,-2076 1695,-2076 1695,-2136"/>
<text text-anchor="middle" x="1646" y="-2112.8" font-family="Arial" font-size="24.00">t</text>
<text text-anchor="middle" x="1646" y="-2086.8" font-family="Arial" font-size="24.00">[Scalar]</text>
</g>
<!-- implicit_rate_1_input_old_forces/t&#45;&gt;integrate_elastic_strain -->
<g id="edge11" class="edge">
<title>implicit_rate_1_input_old_forces/t&#45;&gt;integrate_elastic_strain</title>
<path fill="none" stroke="black" d="M1638.01,-2075.77C1627.4,-2034.33 1610,-1955.98 1610,-1888 1610,-1888 1610,-1888 1610,-1521 1610,-1374.24 1504.5,-1358.9 1376,-1288 1238.27,-1212.01 1148.42,-1313.68 1031,-1209 919.64,-1109.72 807.49,-658.33 768.98,-490.82"/>
<polygon fill="none" stroke="black" points="775.77,-489.1 764.5,-471.16 762.12,-492.21 775.77,-489.1"/>
</g>
<!-- implicit_rate_1_input_old_forces/t&#45;&gt;integrate_slip_hardening -->
<g id="edge18" class="edge">
<title>implicit_rate_1_input_old_forces/t&#45;&gt;integrate_slip_hardening</title>
<path fill="none" stroke="black" d="M1646.44,-2075.87C1647.03,-2034.22 1648,-1955.25 1648,-1888 1648,-1888 1648,-1888 1648,-645 1648,-584.6 1610.08,-526.83 1574.73,-486.11"/>
<polygon fill="none" stroke="black" points="1579.76,-481.22 1561.14,-471.09 1569.38,-490.62 1579.76,-481.22"/>
</g>
<!-- implicit_rate_1_output_residual/elastic_strain -->
<g id="node10" class="node">
<title>implicit_rate_1_output_residual/elastic_strain</title>
<polygon fill="#8800ff" fill-opacity="0.082353" stroke="#8800ff" stroke-opacity="0.313725" points="1183,-118 1025,-118 1025,-58 1183,-58 1183,-118"/>
<text text-anchor="middle" x="1104" y="-94.8" font-family="Arial" font-size="24.00">elastic_strain</text>
<text text-anchor="middle" x="1104" y="-68.8" font-family="Arial" font-size="24.00">[SR2]</text>
</g>
<!-- implicit_rate_1_output_residual/internal/slip_hardening -->
<g id="node11" class="node">
<title>implicit_rate_1_output_residual/internal/slip_hardening</title>
<polygon fill="#8800ff" fill-opacity="0.082353" stroke="#8800ff" stroke-opacity="0.313725" points="1461,-118 1201,-118 1201,-58 1461,-58 1461,-118"/>
<text text-anchor="middle" x="1331" y="-94.8" font-family="Arial" font-size="24.00">internal/slip_hardening</text>
<text text-anchor="middle" x="1331" y="-68.8" font-family="Arial" font-size="24.00">[Scalar]</text>
</g>
<!-- elastic_stretch_output_state/elastic_strain_rate -->
<g id="node13" class="node">
<title>elastic_stretch_output_state/elastic_strain_rate</title>
<polygon fill="#8800ff" fill-opacity="0.082353" stroke="#8800ff" stroke-opacity="0.313725" points="365.5,-670 204.5,-670 204.5,-622 365.5,-622 365.5,-670"/>
<text text-anchor="middle" x="285" y="-651.6" font-family="Arial" font-size="18.00">elastic_strain_rate</text>
<text text-anchor="middle" x="285" y="-631.6" font-family="Arial" font-size="18.00">[SR2]</text>
</g>
<!-- elastic_stretch&#45;&gt;elastic_stretch_output_state/elastic_strain_rate -->
<g id="edge5" class="edge">
<title>elastic_stretch&#45;&gt;elastic_stretch_output_state/elastic_strain_rate</title>
<path fill="none" stroke="black" d="M264,-747.8C267.82,-729.46 272.26,-708.13 276.08,-689.83"/>
<polygon fill="none" stroke="black" points="282.96,-691.11 280.19,-670.1 269.26,-688.25 282.96,-691.11"/>
</g>
<!-- elastic_stretch_output_state/elastic_strain_rate&#45;&gt;integrate_elastic_strain -->
<g id="edge14" class="edge">
<title>elastic_stretch_output_state/elastic_strain_rate&#45;&gt;integrate_elastic_strain</title>
<path fill="none" stroke="black" d="M334.85,-621.98C407.76,-588.32 545.42,-524.76 643.29,-479.58"/>
<polygon fill="none" stroke="black" points="646.46,-485.82 661.69,-471.08 640.59,-473.11 646.46,-485.82"/>
</g>
<!-- plastic_deformation_rate_output_state/internal/plastic_deformation_rate -->
<g id="node14" class="node">
<title>plastic_deformation_rate_output_state/internal/plastic_deformation_rate</title>
<polygon fill="#8800ff" fill-opacity="0.082353" stroke="#8800ff" stroke-opacity="0.313725" points="562,-1041 194,-1041 194,-981 562,-981 562,-1041"/>
<text text-anchor="middle" x="378" y="-1017.8" font-family="Arial" font-size="24.00">internal/plastic_deformation_rate</text>
<text text-anchor="middle" x="378" y="-991.8" font-family="Arial" font-size="24.00">[SR2]</text>
</g>
<!-- plastic_deformation_rate_output_state/internal/plastic_deformation_rate&#45;&gt;elastic_stretch -->
<g id="edge4" class="edge">
<title>plastic_deformation_rate_output_state/internal/plastic_deformation_rate&#45;&gt;elastic_stretch</title>
<path fill="none" stroke="black" d="M361.41,-980.73C343.08,-948.39 313.03,-895.38 289.53,-853.92"/>
<polygon fill="none" stroke="black" points="295.54,-850.33 279.59,-836.38 283.36,-857.23 295.54,-850.33"/>
</g>
<!-- elasticity_1_output_state/internal/cauchy_stress -->
<g id="node16" class="node">
<title>elasticity_1_output_state/internal/cauchy_stress</title>
<polygon fill="#8800ff" fill-opacity="0.082353" stroke="#8800ff" stroke-opacity="0.313725" points="851,-1765 657,-1765 657,-1717 851,-1717 851,-1765"/>
<text text-anchor="middle" x="754" y="-1746.6" font-family="Arial" font-size="18.00">internal/cauchy_stress</text>
<text text-anchor="middle" x="754" y="-1726.6" font-family="Arial" font-size="18.00">[SR2]</text>
</g>
<!-- elasticity_1&#45;&gt;elasticity_1_output_state/internal/cauchy_stress -->
<g id="edge7" class="edge">
<title>elasticity_1&#45;&gt;elasticity_1_output_state/internal/cauchy_stress</title>
<path fill="none" stroke="black" d="M754,-1842.8C754,-1824.56 754,-1803.36 754,-1785.13"/>
<polygon fill="none" stroke="black" points="761,-1785.1 754,-1765.1 747,-1785.1 761,-1785.1"/>
</g>
<!-- resolved_shear -->
<g id="node26" class="node">
<title>resolved_shear</title>
<polygon fill="#bf0036" fill-opacity="0.313725" stroke="#bf0036" stroke-width="2" points="896,-1566 612,-1566 612,-1478 896,-1478 896,-1566"/>
<text text-anchor="middle" x="754" y="-1533.2" font-family="Arial" font-size="36.00">resolved_shear</text>
<text text-anchor="middle" x="754" y="-1493.2" font-family="Arial" font-size="36.00">[ResolvedShear]</text>
</g>
<!-- elasticity_1_output_state/internal/cauchy_stress&#45;&gt;resolved_shear -->
<g id="edge28" class="edge">
<title>elasticity_1_output_state/internal/cauchy_stress&#45;&gt;resolved_shear</title>
<path fill="none" stroke="black" d="M754,-1716.78C754,-1685.89 754,-1630.09 754,-1586.27"/>
<polygon fill="none" stroke="black" points="761,-1586.2 754,-1566.2 747,-1586.2 761,-1586.2"/>
</g>
<!-- euler_rodrigues_1_output_state/orientation_matrix -->
<g id="node18" class="node">
<title>euler_rodrigues_1_output_state/orientation_matrix</title>
<polygon fill="#8800ff" fill-opacity="0.082353" stroke="#8800ff" stroke-opacity="0.313725" points="461,-1765 303,-1765 303,-1717 461,-1717 461,-1765"/>
<text text-anchor="middle" x="382" y="-1746.6" font-family="Arial" font-size="18.00">orientation_matrix</text>
<text text-anchor="middle" x="382" y="-1726.6" font-family="Arial" font-size="18.00">[R2]</text>
</g>
<!-- euler_rodrigues_1&#45;&gt;euler_rodrigues_1_output_state/orientation_matrix -->
<g id="edge9" class="edge">
<title>euler_rodrigues_1&#45;&gt;euler_rodrigues_1_output_state/orientation_matrix</title>
<path fill="none" stroke="black" d="M371.5,-1842.8C373.4,-1824.56 375.61,-1803.36 377.51,-1785.13"/>
<polygon fill="none" stroke="black" points="384.48,-1785.72 379.59,-1765.1 370.56,-1784.27 384.48,-1785.72"/>
</g>
<!-- plastic_deformation_rate -->
<g id="node24" class="node">
<title>plastic_deformation_rate</title>
<polygon fill="#bf0036" fill-opacity="0.313725" stroke="#bf0036" stroke-width="2" points="590,-1201 174,-1201 174,-1113 590,-1113 590,-1201"/>
<text text-anchor="middle" x="382" y="-1168.2" font-family="Arial" font-size="36.00">plastic_deformation_rate</text>
<text text-anchor="middle" x="382" y="-1128.2" font-family="Arial" font-size="36.00">[PlasticDeformationRate]</text>
</g>
<!-- euler_rodrigues_1_output_state/orientation_matrix&#45;&gt;plastic_deformation_rate -->
<g id="edge24" class="edge">
<title>euler_rodrigues_1_output_state/orientation_matrix&#45;&gt;plastic_deformation_rate</title>
<path fill="none" stroke="black" d="M382,-1716.88C382,-1677.21 382,-1593.64 382,-1523 382,-1523 382,-1523 382,-1375 382,-1323.32 382,-1264.71 382,-1221.44"/>
<polygon fill="none" stroke="black" points="389,-1221.23 382,-1201.23 375,-1221.23 389,-1221.23"/>
</g>
<!-- euler_rodrigues_1_output_state/orientation_matrix&#45;&gt;resolved_shear -->
<g id="edge27" class="edge">
<title>euler_rodrigues_1_output_state/orientation_matrix&#45;&gt;resolved_shear</title>
<path fill="none" stroke="black" d="M421.46,-1716.98C478.45,-1683.74 585.41,-1621.34 662.67,-1576.28"/>
<polygon fill="none" stroke="black" points="666.4,-1582.21 680.14,-1566.08 659.34,-1570.11 666.4,-1582.21"/>
</g>
<!-- integrate_elastic_strain_output_residual/elastic_strain -->
<g id="node20" class="node">
<title>integrate_elastic_strain_output_residual/elastic_strain</title>
<polygon fill="#8800ff" fill-opacity="0.082353" stroke="#8800ff" stroke-opacity="0.313725" points="896,-311 776,-311 776,-263 896,-263 896,-311"/>
<text text-anchor="middle" x="836" y="-292.6" font-family="Arial" font-size="18.00">elastic_strain</text>
<text text-anchor="middle" x="836" y="-272.6" font-family="Arial" font-size="18.00">[SR2]</text>
</g>
<!-- integrate_elastic_strain&#45;&gt;integrate_elastic_strain_output_residual/elastic_strain -->
<g id="edge15" class="edge">
<title>integrate_elastic_strain&#45;&gt;integrate_elastic_strain_output_residual/elastic_strain</title>
<path fill="none" stroke="black" d="M780.41,-382.71C790.57,-365.39 802.22,-345.55 812.22,-328.51"/>
<polygon fill="none" stroke="black" points="818.37,-331.86 822.46,-311.07 806.3,-324.78 818.37,-331.86"/>
</g>
<!-- integrate_elastic_strain_output_residual/elastic_strain&#45;&gt;implicit_rate_1_output_residual/elastic_strain -->
<g id="edge16" class="edge">
<title>integrate_elastic_strain_output_residual/elastic_strain&#45;&gt;implicit_rate_1_output_residual/elastic_strain</title>
<path fill="none" stroke="black" stroke-dasharray="5,2" d="M867.53,-262.82C911.83,-230.26 993.17,-170.47 1047.92,-130.22"/>
<polygon fill="none" stroke="black" points="1052.37,-135.64 1064.34,-118.16 1044.07,-124.36 1052.37,-135.64"/>
</g>
<!-- integrate_slip_hardening_output_residual/internal/slip_hardening -->
<g id="node22" class="node">
<title>integrate_slip_hardening_output_residual/internal/slip_hardening</title>
<polygon fill="#8800ff" fill-opacity="0.082353" stroke="#8800ff" stroke-opacity="0.313725" points="1510,-311 1316,-311 1316,-263 1510,-263 1510,-311"/>
<text text-anchor="middle" x="1413" y="-292.6" font-family="Arial" font-size="18.00">internal/slip_hardening</text>
<text text-anchor="middle" x="1413" y="-272.6" font-family="Arial" font-size="18.00">[Scalar]</text>
</g>
<!-- integrate_slip_hardening&#45;&gt;integrate_slip_hardening_output_residual/internal/slip_hardening -->
<g id="edge22" class="edge">
<title>integrate_slip_hardening&#45;&gt;integrate_slip_hardening_output_residual/internal/slip_hardening</title>
<path fill="none" stroke="black" d="M1483.01,-382.71C1469.93,-365.02 1454.91,-344.7 1442.14,-327.42"/>
<polygon fill="none" stroke="black" points="1447.57,-322.99 1430.05,-311.07 1436.31,-331.32 1447.57,-322.99"/>
</g>
<!-- integrate_slip_hardening_output_residual/internal/slip_hardening&#45;&gt;implicit_rate_1_output_residual/internal/slip_hardening -->
<g id="edge23" class="edge">
<title>integrate_slip_hardening_output_residual/internal/slip_hardening&#45;&gt;implicit_rate_1_output_residual/internal/slip_hardening</title>
<path fill="none" stroke="black" stroke-dasharray="5,2" d="M1403.27,-262.63C1390.42,-231.76 1367.49,-176.67 1350.9,-136.8"/>
<polygon fill="none" stroke="black" points="1357.26,-133.87 1343.11,-118.09 1344.33,-139.25 1357.26,-133.87"/>
</g>
<!-- voce_hardening_output_state/internal/slip_hardening_rate -->
<g id="node23" class="node">
<title>voce_hardening_output_state/internal/slip_hardening_rate</title>
<polygon fill="#8800ff" fill-opacity="0.082353" stroke="#8800ff" stroke-opacity="0.313725" points="1408,-676 1092,-676 1092,-616 1408,-616 1408,-676"/>
<text text-anchor="middle" x="1250" y="-652.8" font-family="Arial" font-size="24.00">internal/slip_hardening_rate</text>
<text text-anchor="middle" x="1250" y="-626.8" font-family="Arial" font-size="24.00">[Scalar]</text>
</g>
<!-- voce_hardening_output_state/internal/slip_hardening_rate&#45;&gt;integrate_slip_hardening -->
<g id="edge21" class="edge">
<title>voce_hardening_output_state/internal/slip_hardening_rate&#45;&gt;integrate_slip_hardening</title>
<path fill="none" stroke="black" d="M1285.46,-615.96C1326.53,-582.33 1395.13,-526.16 1446.66,-483.96"/>
<polygon fill="none" stroke="black" points="1451.35,-489.16 1462.39,-471.08 1442.48,-478.33 1451.35,-489.16"/>
</g>
<!-- plastic_deformation_rate&#45;&gt;plastic_deformation_rate_output_state/internal/plastic_deformation_rate -->
<g id="edge26" class="edge">
<title>plastic_deformation_rate&#45;&gt;plastic_deformation_rate_output_state/internal/plastic_deformation_rate</title>
<path fill="none" stroke="black" d="M380.8,-1112.8C380.35,-1096.58 379.83,-1078.02 379.37,-1061.29"/>
<polygon fill="none" stroke="black" points="386.36,-1060.84 378.81,-1041.04 372.36,-1061.23 386.36,-1060.84"/>
</g>
<!-- slip_rule_output_state/internal/slip_rates -->
<g id="node25" class="node">
<title>slip_rule_output_state/internal/slip_rates</title>
<polygon fill="#8800ff" fill-opacity="0.082353" stroke="#8800ff" stroke-opacity="0.313725" points="1207,-1406 1001,-1406 1001,-1346 1207,-1346 1207,-1406"/>
<text text-anchor="middle" x="1104" y="-1382.8" font-family="Arial" font-size="24.00">internal/slip_rates</text>
<text text-anchor="middle" x="1104" y="-1356.8" font-family="Arial" font-size="24.00">[Tensor]</text>
</g>
<!-- slip_rule_output_state/internal/slip_rates&#45;&gt;plastic_deformation_rate -->
<g id="edge25" class="edge">
<title>slip_rule_output_state/internal/slip_rates&#45;&gt;plastic_deformation_rate</title>
<path fill="none" stroke="black" d="M1035.44,-1345.85C991.72,-1327.86 933.58,-1305.04 881,-1288 785.79,-1257.14 678.57,-1228.44 587.99,-1205.9"/>
<polygon fill="none" stroke="black" points="589.43,-1199.05 568.33,-1201.04 586.07,-1212.64 589.43,-1199.05"/>
</g>
<!-- sum_slip_rates -->
<g id="node31" class="node">
<title>sum_slip_rates</title>
<polygon fill="#bf0036" fill-opacity="0.313725" stroke="#bf0036" stroke-width="2" points="1309,-1201 1043,-1201 1043,-1113 1309,-1113 1309,-1201"/>
<text text-anchor="middle" x="1176" y="-1168.2" font-family="Arial" font-size="36.00">sum_slip_rates</text>
<text text-anchor="middle" x="1176" y="-1128.2" font-family="Arial" font-size="36.00">[SumSlipRates]</text>
</g>
<!-- slip_rule_output_state/internal/slip_rates&#45;&gt;sum_slip_rates -->
<g id="edge35" class="edge">
<title>slip_rule_output_state/internal/slip_rates&#45;&gt;sum_slip_rates</title>
<path fill="none" stroke="black" d="M1113.71,-1345.73C1124.3,-1313.82 1141.56,-1261.8 1155.23,-1220.6"/>
<polygon fill="none" stroke="black" points="1161.95,-1222.57 1161.61,-1201.38 1148.66,-1218.16 1161.95,-1222.57"/>
</g>
<!-- resolved_shear_output_state/internal/resolved_shears -->
<g id="node27" class="node">
<title>resolved_shear_output_state/internal/resolved_shears</title>
<polygon fill="#8800ff" fill-opacity="0.082353" stroke="#8800ff" stroke-opacity="0.313725" points="868.5,-1400 659.5,-1400 659.5,-1352 868.5,-1352 868.5,-1400"/>
<text text-anchor="middle" x="764" y="-1381.6" font-family="Arial" font-size="18.00">internal/resolved_shears</text>
<text text-anchor="middle" x="764" y="-1361.6" font-family="Arial" font-size="18.00">[Tensor]</text>
</g>
<!-- resolved_shear&#45;&gt;resolved_shear_output_state/internal/resolved_shears -->
<g id="edge29" class="edge">
<title>resolved_shear&#45;&gt;resolved_shear_output_state/internal/resolved_shears</title>
<path fill="none" stroke="black" d="M757,-1477.8C758.27,-1459.56 759.74,-1438.36 761,-1420.13"/>
<polygon fill="none" stroke="black" points="767.99,-1420.54 762.4,-1400.1 754.03,-1419.57 767.99,-1420.54"/>
</g>
<!-- slip_rule -->
<g id="node28" class="node">
<title>slip_rule</title>
<polygon fill="#bf0036" fill-opacity="0.313725" stroke="#bf0036" stroke-width="2" points="1274.5,-1566 933.5,-1566 933.5,-1478 1274.5,-1478 1274.5,-1566"/>
<text text-anchor="middle" x="1104" y="-1533.2" font-family="Arial" font-size="36.00">slip_rule</text>
<text text-anchor="middle" x="1104" y="-1493.2" font-family="Arial" font-size="36.00">[PowerLawSlipRule]</text>
</g>
<!-- resolved_shear_output_state/internal/resolved_shears&#45;&gt;slip_rule -->
<g id="edge30" class="edge">
<title>resolved_shear_output_state/internal/resolved_shears&#45;&gt;slip_rule</title>
<path fill="none" stroke="black" d="M818.69,-1400.16C863.11,-1418.98 927.39,-1446.2 983.7,-1470.05"/>
<polygon fill="none" stroke="black" points="981.3,-1476.64 1002.45,-1477.99 986.76,-1463.74 981.3,-1476.64"/>
</g>
<!-- slip_rule&#45;&gt;slip_rule_output_state/internal/slip_rates -->
<g id="edge32" class="edge">
<title>slip_rule&#45;&gt;slip_rule_output_state/internal/slip_rates</title>
<path fill="none" stroke="black" d="M1104,-1477.8C1104,-1461.58 1104,-1443.02 1104,-1426.29"/>
<polygon fill="none" stroke="black" points="1111,-1426.04 1104,-1406.04 1097,-1426.04 1111,-1426.04"/>
</g>
<!-- slip_strength_output_state/internal/slip_strengths -->
<g id="node29" class="node">
<title>slip_strength_output_state/internal/slip_strengths</title>
<polygon fill="#8800ff" fill-opacity="0.082353" stroke="#8800ff" stroke-opacity="0.313725" points="1303,-1771 1051,-1771 1051,-1711 1303,-1711 1303,-1771"/>
<text text-anchor="middle" x="1177" y="-1747.8" font-family="Arial" font-size="24.00">internal/slip_strengths</text>
<text text-anchor="middle" x="1177" y="-1721.8" font-family="Arial" font-size="24.00">[Tensor]</text>
</g>
<!-- slip_strength_output_state/internal/slip_strengths&#45;&gt;slip_rule -->
<g id="edge31" class="edge">
<title>slip_strength_output_state/internal/slip_strengths&#45;&gt;slip_rule</title>
<path fill="none" stroke="black" d="M1167.15,-1710.73C1156.42,-1678.82 1138.92,-1626.8 1125.06,-1585.6"/>
<polygon fill="none" stroke="black" points="1131.61,-1583.11 1118.59,-1566.38 1118.34,-1587.57 1131.61,-1583.11"/>
</g>
<!-- slip_strength&#45;&gt;slip_strength_output_state/internal/slip_strengths -->
<g id="edge34" class="edge">
<title>slip_strength&#45;&gt;slip_strength_output_state/internal/slip_strengths</title>
<path fill="none" stroke="black" d="M1185.4,-1842.8C1184.04,-1826.49 1182.48,-1807.82 1181.08,-1791.01"/>
<polygon fill="none" stroke="black" points="1188.06,-1790.39 1179.42,-1771.04 1174.11,-1791.56 1188.06,-1790.39"/>
</g>
<!-- sum_slip_rates_output_state/internal/sum_slip_rates -->
<g id="node32" class="node">
<title>sum_slip_rates_output_state/internal/sum_slip_rates</title>
<polygon fill="#8800ff" fill-opacity="0.082353" stroke="#8800ff" stroke-opacity="0.313725" points="1282.5,-1035 1083.5,-1035 1083.5,-987 1282.5,-987 1282.5,-1035"/>
<text text-anchor="middle" x="1183" y="-1016.6" font-family="Arial" font-size="18.00">internal/sum_slip_rates</text>
<text text-anchor="middle" x="1183" y="-996.6" font-family="Arial" font-size="18.00">[Scalar]</text>
</g>
<!-- sum_slip_rates&#45;&gt;sum_slip_rates_output_state/internal/sum_slip_rates -->
<g id="edge36" class="edge">
<title>sum_slip_rates&#45;&gt;sum_slip_rates_output_state/internal/sum_slip_rates</title>
<path fill="none" stroke="black" d="M1178.1,-1112.8C1178.99,-1094.56 1180.02,-1073.36 1180.9,-1055.13"/>
<polygon fill="none" stroke="black" points="1187.9,-1055.42 1181.88,-1035.1 1173.91,-1054.74 1187.9,-1055.42"/>
</g>
<!-- sum_slip_rates_output_state/internal/sum_slip_rates&#45;&gt;voce_hardening -->
<g id="edge38" class="edge">
<title>sum_slip_rates_output_state/internal/sum_slip_rates&#45;&gt;voce_hardening</title>
<path fill="none" stroke="black" d="M1185.57,-986.78C1188.98,-955.89 1195.16,-900.09 1200,-856.27"/>
<polygon fill="none" stroke="black" points="1206.98,-856.84 1202.22,-836.2 1193.07,-855.31 1206.98,-856.84"/>
</g>
<!-- voce_hardening&#45;&gt;voce_hardening_output_state/internal/slip_hardening_rate -->
<g id="edge39" class="edge">
<title>voce_hardening&#45;&gt;voce_hardening_output_state/internal/slip_hardening_rate</title>
<path fill="none" stroke="black" d="M1219.9,-747.8C1224.83,-731.3 1230.47,-712.4 1235.53,-695.45"/>
<polygon fill="none" stroke="black" points="1242.31,-697.21 1241.33,-676.04 1228.9,-693.2 1242.31,-697.21"/>
</g>
</g>
</svg>
