<?xml version="1.0" encoding="UTF-8" standalone="no"?>
<!DOCTYPE svg PUBLIC "-//W3C//DTD SVG 1.1//EN"
 "http://www.w3.org/Graphics/SVG/1.1/DTD/svg11.dtd">
<!-- Generated by graphviz version 2.43.0 (0)
 -->
<!-- Title: parent Pages: 1 -->
<svg width="394pt" height="476pt"
 viewBox="0.00 0.00 394.00 476.00" xmlns="http://www.w3.org/2000/svg" xmlns:xlink="http://www.w3.org/1999/xlink">
<g id="graph0" class="graph" transform="scale(1 1) rotate(0) translate(4 472)">
<title>parent</title>
<polygon fill="white" stroke="transparent" points="-4,4 -4,-472 390,-472 390,4 -4,4"/>
<g id="clust1" class="cluster">
<title>cluster_euler_rodrigues_1_input</title>
</g>
<g id="clust2" class="cluster">
<title>cluster_euler_rodrigues_1_input_forces</title>
<path fill="none" stroke="black" stroke-dasharray="5,2" d="M82,-342C82,-342 304,-342 304,-342 310,-342 316,-348 316,-354 316,-354 316,-440 316,-440 316,-446 310,-452 304,-452 304,-452 82,-452 82,-452 76,-452 70,-446 70,-440 70,-440 70,-354 70,-354 70,-348 76,-342 82,-342"/>
<text text-anchor="middle" x="193" y="-428.8" font-family="Arial" font-size="24.00">forces</text>
</g>
<g id="clust3" class="cluster">
<title>cluster_euler_rodrigues_1_output</title>
</g>
<g id="clust4" class="cluster">
<title>cluster_euler_rodrigues_1_output_state</title>
<path fill="none" stroke="black" stroke-dasharray="5,2" d="M60,-16C60,-16 326,-16 326,-16 332,-16 338,-22 338,-28 338,-28 338,-114 338,-114 338,-120 332,-126 326,-126 326,-126 60,-126 60,-126 54,-126 48,-120 48,-114 48,-114 48,-28 48,-28 48,-22 54,-16 60,-16"/>
<text text-anchor="middle" x="193" y="-26.8" font-family="Arial" font-size="24.00">state</text>
</g>
<!-- euler_rodrigues_1_input_forces/tmp/orientation -->
<g id="node1" class="node">
<title>euler_rodrigues_1_input_forces/tmp/orientation</title>
<polygon fill="#e5e5e5" stroke="#999999" points="308,-410 78,-410 78,-350 308,-350 308,-410"/>
<text text-anchor="middle" x="193" y="-386.8" font-family="Courier New" font-size="24.00">tmp/orientation</text>
<text text-anchor="middle" x="193" y="-360.8" font-family="Courier New" font-size="24.00">[Rot]</text>
</g>
<!-- euler_rodrigues_1 -->
<g id="node3" class="node">
<title>euler_rodrigues_1</title>
<polygon fill="#003ec9" fill-opacity="0.207843" stroke="#003ec9" stroke-width="2" points="386,-278 0,-278 0,-190 386,-190 386,-278"/>
<text text-anchor="middle" x="193" y="-245.2" font-family="Courier New" font-size="36.00">euler_rodrigues_1</text>
<text text-anchor="middle" x="193" y="-205.2" font-family="Courier New" font-size="36.00">[RotationMatrix]</text>
</g>
<!-- euler_rodrigues_1_input_forces/tmp/orientation&#45;&gt;euler_rodrigues_1 -->
<g id="edge1" class="edge">
<title>euler_rodrigues_1_input_forces/tmp/orientation&#45;&gt;euler_rodrigues_1</title>
<path fill="none" stroke="black" d="M193,-349.86C193,-334.95 193,-316.19 193,-298.18"/>
<polygon fill="black" stroke="black" points="200,-298.03 193,-278.03 186,-298.03 200,-298.03"/>
</g>
<!-- euler_rodrigues_1_output_state/orientation_matrix -->
<g id="node2" class="node">
<title>euler_rodrigues_1_output_state/orientation_matrix</title>
<polygon fill="#005401" fill-opacity="0.082353" stroke="#005401" stroke-opacity="0.313725" points="329.5,-118 56.5,-118 56.5,-58 329.5,-58 329.5,-118"/>
<text text-anchor="middle" x="193" y="-94.8" font-family="Courier New" font-size="24.00">orientation_matrix</text>
<text text-anchor="middle" x="193" y="-68.8" font-family="Courier New" font-size="24.00">[R2]</text>
</g>
<!-- euler_rodrigues_1&#45;&gt;euler_rodrigues_1_output_state/orientation_matrix -->
<g id="edge2" class="edge">
<title>euler_rodrigues_1&#45;&gt;euler_rodrigues_1_output_state/orientation_matrix</title>
<path fill="none" stroke="black" d="M193,-189.8C193,-173.58 193,-155.02 193,-138.29"/>
<polygon fill="black" stroke="black" points="200,-138.04 193,-118.04 186,-138.04 200,-138.04"/>
</g>
</g>
</svg>
