<?xml version="1.0" encoding="UTF-8" standalone="no"?>
<!DOCTYPE svg PUBLIC "-//W3C//DTD SVG 1.1//EN"
 "http://www.w3.org/Graphics/SVG/1.1/DTD/svg11.dtd">
<!-- Generated by graphviz version 2.43.0 (0)
 -->
<!-- Title: parent Pages: 1 -->
<svg width="2416pt" height="2202pt"
 viewBox="0.00 0.00 2416.00 2202.00" xmlns="http://www.w3.org/2000/svg" xmlns:xlink="http://www.w3.org/1999/xlink">
<g id="graph0" class="graph" transform="scale(1 1) rotate(0) translate(4 2198)">
<title>parent</title>
<polygon fill="white" stroke="transparent" points="-4,4 -4,-2198 2412,-2198 2412,4 -4,4"/>
<g id="clust1" class="cluster">
<title>cluster_implicit_rate_1_input</title>
</g>
<g id="clust2" class="cluster">
<title>cluster_implicit_rate_1_input_state</title>
<path fill="none" stroke="black" stroke-dasharray="5,2" d="M859,-2068C859,-2068 1429,-2068 1429,-2068 1435,-2068 1441,-2074 1441,-2080 1441,-2080 1441,-2166 1441,-2166 1441,-2172 1435,-2178 1429,-2178 1429,-2178 859,-2178 859,-2178 853,-2178 847,-2172 847,-2166 847,-2166 847,-2080 847,-2080 847,-2074 853,-2068 859,-2068"/>
<text text-anchor="middle" x="1144" y="-2154.8" font-family="Arial" font-size="24.00">state</text>
</g>
<g id="clust3" class="cluster">
<title>cluster_implicit_rate_1_input_old_state</title>
<path fill="none" stroke="black" stroke-dasharray="5,2" d="M1461,-2068C1461,-2068 2031,-2068 2031,-2068 2037,-2068 2043,-2074 2043,-2080 2043,-2080 2043,-2166 2043,-2166 2043,-2172 2037,-2178 2031,-2178 2031,-2178 1461,-2178 1461,-2178 1455,-2178 1449,-2172 1449,-2166 1449,-2166 1449,-2080 1449,-2080 1449,-2074 1455,-2068 1461,-2068"/>
<text text-anchor="middle" x="1746" y="-2154.8" font-family="Arial" font-size="24.00">old_state</text>
</g>
<g id="clust4" class="cluster">
<title>cluster_implicit_rate_1_input_forces</title>
<path fill="none" stroke="black" stroke-dasharray="5,2" d="M28,-2068C28,-2068 827,-2068 827,-2068 833,-2068 839,-2074 839,-2080 839,-2080 839,-2166 839,-2166 839,-2172 833,-2178 827,-2178 827,-2178 28,-2178 28,-2178 22,-2178 16,-2172 16,-2166 16,-2166 16,-2080 16,-2080 16,-2074 22,-2068 28,-2068"/>
<text text-anchor="middle" x="427.5" y="-2154.8" font-family="Arial" font-size="24.00">forces</text>
</g>
<g id="clust5" class="cluster">
<title>cluster_implicit_rate_1_input_old_forces</title>
<path fill="none" stroke="black" stroke-dasharray="5,2" d="M2063,-2068C2063,-2068 2187,-2068 2187,-2068 2193,-2068 2199,-2074 2199,-2080 2199,-2080 2199,-2166 2199,-2166 2199,-2172 2193,-2178 2187,-2178 2187,-2178 2063,-2178 2063,-2178 2057,-2178 2051,-2172 2051,-2166 2051,-2166 2051,-2080 2051,-2080 2051,-2074 2057,-2068 2063,-2068"/>
<text text-anchor="middle" x="2125" y="-2154.8" font-family="Arial" font-size="24.00">old_forces</text>
</g>
<g id="clust6" class="cluster">
<title>cluster_implicit_rate_1_output</title>
</g>
<g id="clust7" class="cluster">
<title>cluster_implicit_rate_1_output_residual</title>
<path fill="none" stroke="black" stroke-dasharray="5,2" d="M1382,-16C1382,-16 1952,-16 1952,-16 1958,-16 1964,-22 1964,-28 1964,-28 1964,-114 1964,-114 1964,-120 1958,-126 1952,-126 1952,-126 1382,-126 1382,-126 1376,-126 1370,-120 1370,-114 1370,-114 1370,-28 1370,-28 1370,-22 1376,-16 1382,-16"/>
<text text-anchor="middle" x="1667" y="-26.8" font-family="Arial" font-size="24.00">residual</text>
</g>
<g id="clust8" class="cluster">
<title>cluster_elastic_stretch</title>
<polygon fill="#f2f2f2" stroke="transparent" points="191,-564 191,-844 637,-844 637,-564 191,-564"/>
</g>
<g id="clust9" class="cluster">
<title>cluster_elastic_stretch_output</title>
<polygon fill="#f2f2f2" stroke="transparent" points="335,-572 335,-686 583,-686 583,-572 335,-572"/>
</g>
<g id="clust10" class="cluster">
<title>cluster_elastic_stretch_output_state</title>
<path fill="#f2f2f2" stroke="black" stroke-dasharray="5,2" d="M355,-580C355,-580 563,-580 563,-580 569,-580 575,-586 575,-592 575,-592 575,-666 575,-666 575,-672 569,-678 563,-678 563,-678 355,-678 355,-678 349,-678 343,-672 343,-666 343,-666 343,-592 343,-592 343,-586 349,-580 355,-580"/>
<text text-anchor="middle" x="459" y="-590.8" font-family="Arial" font-size="24.00">state</text>
</g>
<g id="clust11" class="cluster">
<title>cluster_elasticity_1</title>
<polygon fill="#f2f2f2" stroke="transparent" points="715,-1659 715,-1939 1335,-1939 1335,-1659 715,-1659"/>
</g>
<g id="clust12" class="cluster">
<title>cluster_elasticity_1_output</title>
<polygon fill="#f2f2f2" stroke="transparent" points="885,-1667 885,-1781 1165,-1781 1165,-1667 885,-1667"/>
</g>
<g id="clust13" class="cluster">
<title>cluster_elasticity_1_output_state</title>
<path fill="#f2f2f2" stroke="black" stroke-dasharray="5,2" d="M905,-1675C905,-1675 1145,-1675 1145,-1675 1151,-1675 1157,-1681 1157,-1687 1157,-1687 1157,-1761 1157,-1761 1157,-1767 1151,-1773 1145,-1773 1145,-1773 905,-1773 905,-1773 899,-1773 893,-1767 893,-1761 893,-1761 893,-1687 893,-1687 893,-1681 899,-1675 905,-1675"/>
<text text-anchor="middle" x="1025" y="-1685.8" font-family="Arial" font-size="24.00">state</text>
</g>
<g id="clust14" class="cluster">
<title>cluster_euler_rodrigues_1</title>
<polygon fill="#f2f2f2" stroke="transparent" points="305,-1659 305,-1939 707,-1939 707,-1659 305,-1659"/>
</g>
<g id="clust15" class="cluster">
<title>cluster_euler_rodrigues_1_output</title>
<polygon fill="#f2f2f2" stroke="transparent" points="426,-1667 426,-1781 664,-1781 664,-1667 426,-1667"/>
</g>
<g id="clust16" class="cluster">
<title>cluster_euler_rodrigues_1_output_state</title>
<path fill="#f2f2f2" stroke="black" stroke-dasharray="5,2" d="M446,-1675C446,-1675 644,-1675 644,-1675 650,-1675 656,-1681 656,-1687 656,-1687 656,-1761 656,-1761 656,-1767 650,-1773 644,-1773 644,-1773 446,-1773 446,-1773 440,-1773 434,-1767 434,-1761 434,-1761 434,-1687 434,-1687 434,-1681 440,-1675 446,-1675"/>
<text text-anchor="middle" x="545" y="-1685.8" font-family="Arial" font-size="24.00">state</text>
</g>
<g id="clust17" class="cluster">
<title>cluster_integrate_elastic_strain</title>
<polygon fill="#f2f2f2" stroke="transparent" points="495,-205 495,-479 1245,-479 1245,-205 495,-205"/>
</g>
<g id="clust18" class="cluster">
<title>cluster_integrate_elastic_strain_output</title>
<polygon fill="#f2f2f2" stroke="transparent" points="878,-213 878,-327 1074,-327 1074,-213 878,-213"/>
</g>
<g id="clust19" class="cluster">
<title>cluster_integrate_elastic_strain_output_residual</title>
<path fill="#f2f2f2" stroke="black" stroke-dasharray="5,2" d="M898,-221C898,-221 1054,-221 1054,-221 1060,-221 1066,-227 1066,-233 1066,-233 1066,-307 1066,-307 1066,-313 1060,-319 1054,-319 1054,-319 898,-319 898,-319 892,-319 886,-313 886,-307 886,-307 886,-233 886,-233 886,-227 892,-221 898,-221"/>
<text text-anchor="middle" x="976" y="-231.8" font-family="Arial" font-size="24.00">residual</text>
</g>
<g id="clust20" class="cluster">
<title>cluster_integrate_slip_hardening</title>
<polygon fill="#f2f2f2" stroke="transparent" points="1584,-205 1584,-479 2400,-479 2400,-205 1584,-205"/>
</g>
<g id="clust21" class="cluster">
<title>cluster_integrate_slip_hardening_output</title>
<polygon fill="#f2f2f2" stroke="transparent" points="1719,-213 1719,-327 2009,-327 2009,-213 1719,-213"/>
</g>
<g id="clust22" class="cluster">
<title>cluster_integrate_slip_hardening_output_residual</title>
<path fill="#f2f2f2" stroke="black" stroke-dasharray="5,2" d="M1739,-221C1739,-221 1989,-221 1989,-221 1995,-221 2001,-227 2001,-233 2001,-233 2001,-307 2001,-307 2001,-313 1995,-319 1989,-319 1989,-319 1739,-319 1739,-319 1733,-319 1727,-313 1727,-307 1727,-307 1727,-233 1727,-233 1727,-227 1733,-221 1739,-221"/>
<text text-anchor="middle" x="1864" y="-231.8" font-family="Arial" font-size="24.00">residual</text>
</g>
<g id="clust23" class="cluster">
<title>cluster_plastic_deformation_rate</title>
<polygon fill="#f2f2f2" stroke="transparent" points="267,-923 267,-1209 823,-1209 823,-923 267,-923"/>
</g>
<g id="clust24" class="cluster">
<title>cluster_plastic_deformation_rate_output</title>
<polygon fill="#f2f2f2" stroke="transparent" points="280,-931 280,-1057 798,-1057 798,-931 280,-931"/>
</g>
<g id="clust25" class="cluster">
<title>cluster_plastic_deformation_rate_output_state</title>
<path fill="#f2f2f2" stroke="black" stroke-dasharray="5,2" d="M300,-939C300,-939 778,-939 778,-939 784,-939 790,-945 790,-951 790,-951 790,-1037 790,-1037 790,-1043 784,-1049 778,-1049 778,-1049 300,-1049 300,-1049 294,-1049 288,-1043 288,-1037 288,-1037 288,-951 288,-951 288,-945 294,-939 300,-939"/>
<text text-anchor="middle" x="539" y="-949.8" font-family="Arial" font-size="24.00">state</text>
</g>
<g id="clust26" class="cluster">
<title>cluster_resolved_shear</title>
<polygon fill="#f2f2f2" stroke="transparent" points="846,-1294 846,-1574 1204,-1574 1204,-1294 846,-1294"/>
</g>
<g id="clust27" class="cluster">
<title>cluster_resolved_shear_output</title>
<polygon fill="#f2f2f2" stroke="transparent" points="884,-1302 884,-1416 1186,-1416 1186,-1302 884,-1302"/>
</g>
<g id="clust28" class="cluster">
<title>cluster_resolved_shear_output_state</title>
<path fill="#f2f2f2" stroke="black" stroke-dasharray="5,2" d="M904,-1310C904,-1310 1166,-1310 1166,-1310 1172,-1310 1178,-1316 1178,-1322 1178,-1322 1178,-1396 1178,-1396 1178,-1402 1172,-1408 1166,-1408 1166,-1408 904,-1408 904,-1408 898,-1408 892,-1402 892,-1396 892,-1396 892,-1322 892,-1322 892,-1316 898,-1310 904,-1310"/>
<text text-anchor="middle" x="1035" y="-1320.8" font-family="Arial" font-size="24.00">state</text>
</g>
<g id="clust29" class="cluster">
<title>cluster_slip_rule</title>
<polygon fill="#f2f2f2" stroke="transparent" points="1250,-1288 1250,-1574 1674,-1574 1674,-1288 1250,-1288"/>
</g>
<g id="clust30" class="cluster">
<title>cluster_slip_rule_output</title>
<polygon fill="#f2f2f2" stroke="transparent" points="1302,-1296 1302,-1422 1622,-1422 1622,-1296 1302,-1296"/>
</g>
<g id="clust31" class="cluster">
<title>cluster_slip_rule_output_state</title>
<path fill="#f2f2f2" stroke="black" stroke-dasharray="5,2" d="M1322,-1304C1322,-1304 1602,-1304 1602,-1304 1608,-1304 1614,-1310 1614,-1316 1614,-1316 1614,-1402 1614,-1402 1614,-1408 1608,-1414 1602,-1414 1602,-1414 1322,-1414 1322,-1414 1316,-1414 1310,-1408 1310,-1402 1310,-1402 1310,-1316 1310,-1316 1310,-1310 1316,-1304 1322,-1304"/>
<text text-anchor="middle" x="1462" y="-1314.8" font-family="Arial" font-size="24.00">state</text>
</g>
<g id="clust32" class="cluster">
<title>cluster_slip_strength</title>
<polygon fill="#f2f2f2" stroke="transparent" points="1343,-1653 1343,-1939 1877,-1939 1877,-1653 1343,-1653"/>
</g>
<g id="clust33" class="cluster">
<title>cluster_slip_strength_output</title>
<polygon fill="#f2f2f2" stroke="transparent" points="1387,-1661 1387,-1787 1763,-1787 1763,-1661 1387,-1661"/>
</g>
<g id="clust34" class="cluster">
<title>cluster_slip_strength_output_state</title>
<path fill="#f2f2f2" stroke="black" stroke-dasharray="5,2" d="M1407,-1669C1407,-1669 1743,-1669 1743,-1669 1749,-1669 1755,-1675 1755,-1681 1755,-1681 1755,-1767 1755,-1767 1755,-1773 1749,-1779 1743,-1779 1743,-1779 1407,-1779 1407,-1779 1401,-1779 1395,-1773 1395,-1767 1395,-1767 1395,-1681 1395,-1681 1395,-1675 1401,-1669 1407,-1669"/>
<text text-anchor="middle" x="1575" y="-1679.8" font-family="Arial" font-size="24.00">state</text>
</g>
<g id="clust35" class="cluster">
<title>cluster_sum_slip_rates</title>
<polygon fill="#f2f2f2" stroke="transparent" points="1380,-929 1380,-1209 1718,-1209 1718,-929 1380,-929"/>
</g>
<g id="clust36" class="cluster">
<title>cluster_sum_slip_rates_output</title>
<polygon fill="#f2f2f2" stroke="transparent" points="1412,-937 1412,-1051 1702,-1051 1702,-937 1412,-937"/>
</g>
<g id="clust37" class="cluster">
<title>cluster_sum_slip_rates_output_state</title>
<path fill="#f2f2f2" stroke="black" stroke-dasharray="5,2" d="M1432,-945C1432,-945 1682,-945 1682,-945 1688,-945 1694,-951 1694,-957 1694,-957 1694,-1031 1694,-1031 1694,-1037 1688,-1043 1682,-1043 1682,-1043 1432,-1043 1432,-1043 1426,-1043 1420,-1037 1420,-1031 1420,-1031 1420,-957 1420,-957 1420,-951 1426,-945 1432,-945"/>
<text text-anchor="middle" x="1557" y="-955.8" font-family="Arial" font-size="24.00">state</text>
</g>
<g id="clust38" class="cluster">
<title>cluster_voce_hardening</title>
<polygon fill="#f2f2f2" stroke="transparent" points="1289,-558 1289,-844 1953,-844 1953,-558 1289,-558"/>
</g>
<g id="clust39" class="cluster">
<title>cluster_voce_hardening_output</title>
<polygon fill="#f2f2f2" stroke="transparent" points="1447,-566 1447,-692 1895,-692 1895,-566 1447,-566"/>
</g>
<g id="clust40" class="cluster">
<title>cluster_voce_hardening_output_state</title>
<path fill="#f2f2f2" stroke="black" stroke-dasharray="5,2" d="M1467,-574C1467,-574 1875,-574 1875,-574 1881,-574 1887,-580 1887,-586 1887,-586 1887,-672 1887,-672 1887,-678 1881,-684 1875,-684 1875,-684 1467,-684 1467,-684 1461,-684 1455,-678 1455,-672 1455,-672 1455,-586 1455,-586 1455,-580 1461,-574 1467,-574"/>
<text text-anchor="middle" x="1671" y="-584.8" font-family="Arial" font-size="24.00">state</text>
</g>
<!-- implicit_rate_1_input_state/elastic_strain -->
<g id="node1" class="node">
<title>implicit_rate_1_input_state/elastic_strain</title>
<polygon fill="#e5e5e5" stroke="#999999" points="1071,-2136 855,-2136 855,-2076 1071,-2076 1071,-2136"/>
<text text-anchor="middle" x="963" y="-2112.8" font-family="Courier New" font-size="24.00">elastic_strain</text>
<text text-anchor="middle" x="963" y="-2086.8" font-family="Courier New" font-size="24.00">[SR2]</text>
</g>
<!-- elastic_stretch -->
<g id="node12" class="node">
<title>elastic_stretch</title>
<polygon fill="#003ec9" fill-opacity="0.207843" stroke="#003ec9" stroke-width="2" points="629,-836 199,-836 199,-748 629,-748 629,-836"/>
<text text-anchor="middle" x="414" y="-803.2" font-family="Courier New" font-size="36.00">elastic_stretch</text>
<text text-anchor="middle" x="414" y="-763.2" font-family="Courier New" font-size="36.00">[ElasticStrainRate]</text>
</g>
<!-- implicit_rate_1_input_state/elastic_strain&#45;&gt;elastic_stretch -->
<g id="edge3" class="edge">
<title>implicit_rate_1_input_state/elastic_strain&#45;&gt;elastic_stretch</title>
<path fill="none" stroke="black" d="M894.78,-2075.95C878.09,-2069.82 860.12,-2064 843,-2060 722.73,-2031.86 384.97,-2082.97 290,-2004 252.08,-1972.47 247,-1859.14 247,-1742 247,-1742 247,-1742 247,-1010 247,-945.79 293.49,-888.92 337.42,-849.53"/>
<polygon fill="black" stroke="black" points="342.16,-854.69 352.76,-836.34 333.03,-844.07 342.16,-854.69"/>
</g>
<!-- elasticity_1 -->
<g id="node15" class="node">
<title>elasticity_1</title>
<polygon fill="#003ec9" fill-opacity="0.207843" stroke="#003ec9" stroke-width="2" points="1327,-1931 723,-1931 723,-1843 1327,-1843 1327,-1931"/>
<text text-anchor="middle" x="1025" y="-1898.2" font-family="Courier New" font-size="36.00">elasticity_1</text>
<text text-anchor="middle" x="1025" y="-1858.2" font-family="Courier New" font-size="36.00">[LinearIsotropicElasticity]</text>
</g>
<!-- implicit_rate_1_input_state/elastic_strain&#45;&gt;elasticity_1 -->
<g id="edge6" class="edge">
<title>implicit_rate_1_input_state/elastic_strain&#45;&gt;elasticity_1</title>
<path fill="none" stroke="black" d="M971.36,-2075.73C980.46,-2043.89 995.28,-1992.04 1007.03,-1950.88"/>
<polygon fill="black" stroke="black" points="1013.84,-1952.54 1012.61,-1931.38 1000.38,-1948.69 1013.84,-1952.54"/>
</g>
<!-- integrate_elastic_strain -->
<g id="node19" class="node">
<title>integrate_elastic_strain</title>
<polygon fill="#003ec9" fill-opacity="0.207843" stroke="#003ec9" stroke-width="2" points="1237,-471 503,-471 503,-383 1237,-383 1237,-471"/>
<text text-anchor="middle" x="870" y="-438.2" font-family="Courier New" font-size="36.00">integrate_elastic_strain</text>
<text text-anchor="middle" x="870" y="-398.2" font-family="Courier New" font-size="36.00">[SR2BackwardEulerTimeIntegration]</text>
</g>
<!-- implicit_rate_1_input_state/elastic_strain&#45;&gt;integrate_elastic_strain -->
<g id="edge13" class="edge">
<title>implicit_rate_1_input_state/elastic_strain&#45;&gt;integrate_elastic_strain</title>
<path fill="none" stroke="black" d="M890.57,-2075.99C875.02,-2070.28 858.57,-2064.63 843,-2060 606.43,-1989.61 455.35,-2131.6 301,-1939 216.24,-1833.23 423.2,-1661.71 430,-1653 592.93,-1444.37 722.62,-1452.27 827,-1209 861.64,-1128.27 843,-1099.84 843,-1012 843,-1012 843,-1012 843,-645 843,-592.8 850.79,-534.07 858,-490.89"/>
<polygon fill="black" stroke="black" points="864.92,-491.94 861.46,-471.03 851.13,-489.54 864.92,-491.94"/>
</g>
<!-- implicit_rate_1_input_state/internal/slip_hardening -->
<g id="node2" class="node">
<title>implicit_rate_1_input_state/internal/slip_hardening</title>
<polygon fill="#e5e5e5" stroke="#999999" points="1433,-2136 1089,-2136 1089,-2076 1433,-2076 1433,-2136"/>
<text text-anchor="middle" x="1261" y="-2112.8" font-family="Courier New" font-size="24.00">internal/slip_hardening</text>
<text text-anchor="middle" x="1261" y="-2086.8" font-family="Courier New" font-size="24.00">[Scalar]</text>
</g>
<!-- integrate_slip_hardening -->
<g id="node21" class="node">
<title>integrate_slip_hardening</title>
<polygon fill="#003ec9" fill-opacity="0.207843" stroke="#003ec9" stroke-width="2" points="2392,-471 1592,-471 1592,-383 2392,-383 2392,-471"/>
<text text-anchor="middle" x="1992" y="-438.2" font-family="Courier New" font-size="36.00">integrate_slip_hardening</text>
<text text-anchor="middle" x="1992" y="-398.2" font-family="Courier New" font-size="36.00">[ScalarBackwardEulerTimeIntegration]</text>
</g>
<!-- implicit_rate_1_input_state/internal/slip_hardening&#45;&gt;integrate_slip_hardening -->
<g id="edge20" class="edge">
<title>implicit_rate_1_input_state/internal/slip_hardening&#45;&gt;integrate_slip_hardening</title>
<path fill="none" stroke="black" d="M1369.98,-2075.99C1394.54,-2070.11 1420.56,-2064.4 1445,-2060 1687.9,-2016.3 1973,-2134.8 1973,-1888 1973,-1888 1973,-1888 1973,-1521 1973,-1358.79 2011,-1320.21 2011,-1158 2011,-1158 2011,-1158 2011,-645 2011,-593 2005.52,-534.26 2000.44,-491.02"/>
<polygon fill="black" stroke="black" points="2007.39,-490.14 1998.01,-471.13 1993.49,-491.84 2007.39,-490.14"/>
</g>
<!-- slip_strength -->
<g id="node30" class="node">
<title>slip_strength</title>
<polygon fill="#003ec9" fill-opacity="0.207843" stroke="#003ec9" stroke-width="2" points="1868.5,-1931 1351.5,-1931 1351.5,-1843 1868.5,-1843 1868.5,-1931"/>
<text text-anchor="middle" x="1610" y="-1898.2" font-family="Courier New" font-size="36.00">slip_strength</text>
<text text-anchor="middle" x="1610" y="-1858.2" font-family="Courier New" font-size="36.00">[SingleSlipStrengthMap]</text>
</g>
<!-- implicit_rate_1_input_state/internal/slip_hardening&#45;&gt;slip_strength -->
<g id="edge33" class="edge">
<title>implicit_rate_1_input_state/internal/slip_hardening&#45;&gt;slip_strength</title>
<path fill="none" stroke="black" d="M1307.71,-2075.96C1362.72,-2041.75 1455.26,-1984.21 1523.49,-1941.79"/>
<polygon fill="black" stroke="black" points="1527.43,-1947.58 1540.72,-1931.08 1520.04,-1935.69 1527.43,-1947.58"/>
</g>
<!-- voce_hardening -->
<g id="node33" class="node">
<title>voce_hardening</title>
<polygon fill="#003ec9" fill-opacity="0.207843" stroke="#003ec9" stroke-width="2" points="1944.5,-836 1297.5,-836 1297.5,-748 1944.5,-748 1944.5,-836"/>
<text text-anchor="middle" x="1621" y="-803.2" font-family="Courier New" font-size="36.00">voce_hardening</text>
<text text-anchor="middle" x="1621" y="-763.2" font-family="Courier New" font-size="36.00">[VoceSingleSlipHardeningRule]</text>
</g>
<!-- implicit_rate_1_input_state/internal/slip_hardening&#45;&gt;voce_hardening -->
<g id="edge37" class="edge">
<title>implicit_rate_1_input_state/internal/slip_hardening&#45;&gt;voce_hardening</title>
<path fill="none" stroke="black" d="M1370.48,-2075.94C1394.89,-2070.1 1420.73,-2064.41 1445,-2060 1547.62,-2041.36 1834.2,-2074.57 1911,-2004 1949.77,-1968.38 1935,-1940.65 1935,-1888 1935,-1888 1935,-1888 1935,-1010 1935,-930.43 1865.92,-877.77 1792.56,-844.27"/>
<polygon fill="black" stroke="black" points="1794.99,-837.69 1773.86,-836.16 1789.43,-850.54 1794.99,-837.69"/>
</g>
<!-- implicit_rate_1_input_old_state/elastic_strain -->
<g id="node3" class="node">
<title>implicit_rate_1_input_old_state/elastic_strain</title>
<polygon fill="#e5e5e5" stroke="#999999" points="1673,-2136 1457,-2136 1457,-2076 1673,-2076 1673,-2136"/>
<text text-anchor="middle" x="1565" y="-2112.8" font-family="Courier New" font-size="24.00">elastic_strain</text>
<text text-anchor="middle" x="1565" y="-2086.8" font-family="Courier New" font-size="24.00">[SR2]</text>
</g>
<!-- implicit_rate_1_input_old_state/elastic_strain&#45;&gt;integrate_elastic_strain -->
<g id="edge12" class="edge">
<title>implicit_rate_1_input_old_state/elastic_strain&#45;&gt;integrate_elastic_strain</title>
<path fill="none" stroke="black" d="M1634.19,-2075.96C1649.74,-2070.12 1666.29,-2064.42 1682,-2060 1814.67,-2022.66 1888.46,-2100.36 1987,-2004 2024.64,-1967.19 2011,-1940.65 2011,-1888 2011,-1888 2011,-1888 2011,-1521 2011,-1487.47 1977.35,-1495.92 1949,-1478 1805.62,-1387.36 1774.72,-1352.91 1618,-1288 1493.79,-1236.56 1429.45,-1294.87 1326,-1209 1251.21,-1146.91 1231,-1109.2 1231,-1012 1231,-1012 1231,-1012 1231,-645 1231,-562.66 1161.16,-510.78 1082.92,-478.48"/>
<polygon fill="black" stroke="black" points="1085.15,-471.84 1063.97,-471.09 1080.06,-484.88 1085.15,-471.84"/>
</g>
<!-- implicit_rate_1_input_old_state/internal/slip_hardening -->
<g id="node4" class="node">
<title>implicit_rate_1_input_old_state/internal/slip_hardening</title>
<polygon fill="#e5e5e5" stroke="#999999" points="2035,-2136 1691,-2136 1691,-2076 2035,-2076 2035,-2136"/>
<text text-anchor="middle" x="1863" y="-2112.8" font-family="Courier New" font-size="24.00">internal/slip_hardening</text>
<text text-anchor="middle" x="1863" y="-2086.8" font-family="Courier New" font-size="24.00">[Scalar]</text>
</g>
<!-- implicit_rate_1_input_old_state/internal/slip_hardening&#45;&gt;integrate_slip_hardening -->
<g id="edge19" class="edge">
<title>implicit_rate_1_input_old_state/internal/slip_hardening&#45;&gt;integrate_slip_hardening</title>
<path fill="none" stroke="black" d="M1935.22,-2075.93C1967.39,-2059.44 2002.92,-2035.68 2025,-2004 2055.1,-1960.81 2049,-1940.65 2049,-1888 2049,-1888 2049,-1888 2049,-1521 2049,-1358.79 2087,-1320.21 2087,-1158 2087,-1158 2087,-1158 2087,-645 2087,-588.63 2059.77,-530.41 2034.46,-488.49"/>
<polygon fill="black" stroke="black" points="2040.21,-484.49 2023.63,-471.29 2028.36,-491.94 2040.21,-484.49"/>
</g>
<!-- implicit_rate_1_input_forces/deformation_rate -->
<g id="node5" class="node">
<title>implicit_rate_1_input_forces/deformation_rate</title>
<polygon fill="#e5e5e5" stroke="#999999" points="269.5,-2136 24.5,-2136 24.5,-2076 269.5,-2076 269.5,-2136"/>
<text text-anchor="middle" x="147" y="-2112.8" font-family="Courier New" font-size="24.00">deformation_rate</text>
<text text-anchor="middle" x="147" y="-2086.8" font-family="Courier New" font-size="24.00">[SR2]</text>
</g>
<!-- implicit_rate_1_input_forces/deformation_rate&#45;&gt;elastic_stretch -->
<g id="edge1" class="edge">
<title>implicit_rate_1_input_forces/deformation_rate&#45;&gt;elastic_stretch</title>
<path fill="none" stroke="black" d="M139.68,-2075.73C129.95,-2034.24 114,-1955.83 114,-1888 114,-1888 114,-1888 114,-1010 114,-931.5 182.27,-878.51 253.67,-844.56"/>
<polygon fill="black" stroke="black" points="257,-850.74 272.35,-836.13 251.24,-837.98 257,-850.74"/>
</g>
<!-- implicit_rate_1_input_forces/t -->
<g id="node6" class="node">
<title>implicit_rate_1_input_forces/t</title>
<polygon fill="#e5e5e5" stroke="#999999" points="830.5,-2136 699.5,-2136 699.5,-2076 830.5,-2076 830.5,-2136"/>
<text text-anchor="middle" x="765" y="-2112.8" font-family="Courier New" font-size="24.00">t</text>
<text text-anchor="middle" x="765" y="-2086.8" font-family="Courier New" font-size="24.00">[Scalar]</text>
</g>
<!-- implicit_rate_1_input_forces/t&#45;&gt;integrate_elastic_strain -->
<g id="edge10" class="edge">
<title>implicit_rate_1_input_forces/t&#45;&gt;integrate_elastic_strain</title>
<path fill="none" stroke="black" d="M723.24,-2075.93C712.79,-2069.8 701.31,-2063.99 690,-2060 519.05,-1999.71 444.33,-2092.27 286,-2004 227.55,-1971.41 190,-1954.92 190,-1888 190,-1888 190,-1888 190,-1156 190,-994.45 171,-954.55 171,-793 171,-793 171,-793 171,-645 171,-563.06 348.43,-508.6 524.5,-474.73"/>
<polygon fill="black" stroke="black" points="525.93,-481.59 544.29,-471.01 523.34,-467.83 525.93,-481.59"/>
</g>
<!-- implicit_rate_1_input_forces/t&#45;&gt;integrate_slip_hardening -->
<g id="edge17" class="edge">
<title>implicit_rate_1_input_forces/t&#45;&gt;integrate_slip_hardening</title>
<path fill="none" stroke="black" d="M808.49,-2075.78C819.36,-2069.65 831.28,-2063.88 843,-2060 1068.3,-1985.42 1897,-2125.32 1897,-1888 1897,-1888 1897,-1888 1897,-1156 1897,-991.17 1973,-957.83 1973,-793 1973,-793 1973,-793 1973,-645 1973,-593 1978.48,-534.26 1983.56,-491.02"/>
<polygon fill="black" stroke="black" points="1990.51,-491.84 1985.99,-471.13 1976.61,-490.14 1990.51,-491.84"/>
</g>
<!-- implicit_rate_1_input_forces/vorticity -->
<g id="node7" class="node">
<title>implicit_rate_1_input_forces/vorticity</title>
<polygon fill="#e5e5e5" stroke="#999999" points="432.5,-2136 287.5,-2136 287.5,-2076 432.5,-2076 432.5,-2136"/>
<text text-anchor="middle" x="360" y="-2112.8" font-family="Courier New" font-size="24.00">vorticity</text>
<text text-anchor="middle" x="360" y="-2086.8" font-family="Courier New" font-size="24.00">[WR2]</text>
</g>
<!-- implicit_rate_1_input_forces/vorticity&#45;&gt;elastic_stretch -->
<g id="edge2" class="edge">
<title>implicit_rate_1_input_forces/vorticity&#45;&gt;elastic_stretch</title>
<path fill="none" stroke="black" d="M307.75,-2075.88C298.2,-2070.58 288.3,-2065.11 279,-2060 233.34,-2034.9 207.05,-2045.84 176,-2004 144.63,-1961.72 152,-1940.65 152,-1888 152,-1888 152,-1888 152,-1156 152,-1040.05 161.89,-999.58 233,-908 251.73,-883.87 277.05,-863.4 302.81,-846.71"/>
<polygon fill="black" stroke="black" points="306.81,-852.47 320.18,-836.03 299.48,-840.54 306.81,-852.47"/>
</g>
<!-- implicit_rate_1_input_forces/tmp/orientation -->
<g id="node8" class="node">
<title>implicit_rate_1_input_forces/tmp/orientation</title>
<polygon fill="#e5e5e5" stroke="#999999" points="681,-2136 451,-2136 451,-2076 681,-2076 681,-2136"/>
<text text-anchor="middle" x="566" y="-2112.8" font-family="Courier New" font-size="24.00">tmp/orientation</text>
<text text-anchor="middle" x="566" y="-2086.8" font-family="Courier New" font-size="24.00">[Rot]</text>
</g>
<!-- euler_rodrigues_1 -->
<g id="node17" class="node">
<title>euler_rodrigues_1</title>
<polygon fill="#003ec9" fill-opacity="0.207843" stroke="#003ec9" stroke-width="2" points="699,-1931 313,-1931 313,-1843 699,-1843 699,-1931"/>
<text text-anchor="middle" x="506" y="-1898.2" font-family="Courier New" font-size="36.00">euler_rodrigues_1</text>
<text text-anchor="middle" x="506" y="-1858.2" font-family="Courier New" font-size="36.00">[RotationMatrix]</text>
</g>
<!-- implicit_rate_1_input_forces/tmp/orientation&#45;&gt;euler_rodrigues_1 -->
<g id="edge8" class="edge">
<title>implicit_rate_1_input_forces/tmp/orientation&#45;&gt;euler_rodrigues_1</title>
<path fill="none" stroke="black" d="M557.91,-2075.73C549.1,-2043.89 534.77,-1992.04 523.39,-1950.88"/>
<polygon fill="black" stroke="black" points="530.07,-1948.79 517.99,-1931.38 516.58,-1952.52 530.07,-1948.79"/>
</g>
<!-- implicit_rate_1_input_old_forces/t -->
<g id="node9" class="node">
<title>implicit_rate_1_input_old_forces/t</title>
<polygon fill="#e5e5e5" stroke="#999999" points="2190.5,-2136 2059.5,-2136 2059.5,-2076 2190.5,-2076 2190.5,-2136"/>
<text text-anchor="middle" x="2125" y="-2112.8" font-family="Courier New" font-size="24.00">t</text>
<text text-anchor="middle" x="2125" y="-2086.8" font-family="Courier New" font-size="24.00">[Scalar]</text>
</g>
<!-- implicit_rate_1_input_old_forces/t&#45;&gt;integrate_elastic_strain -->
<g id="edge11" class="edge">
<title>implicit_rate_1_input_old_forces/t&#45;&gt;integrate_elastic_strain</title>
<path fill="none" stroke="black" d="M2116.57,-2075.8C2105.37,-2034.4 2087,-1956.08 2087,-1888 2087,-1888 2087,-1888 2087,-1521 2087,-1340 1919.15,-1359.79 1753,-1288 1595.85,-1220.1 1499.76,-1327.29 1376,-1209 1237.99,-1077.09 1269,-983.91 1269,-793 1269,-793 1269,-793 1269,-645 1269,-604.89 1272.43,-587.26 1245,-558 1211.97,-522.76 1168.91,-497.08 1123.8,-478.35"/>
<polygon fill="black" stroke="black" points="1126.23,-471.79 1105.05,-471 1121.12,-484.82 1126.23,-471.79"/>
</g>
<!-- implicit_rate_1_input_old_forces/t&#45;&gt;integrate_slip_hardening -->
<g id="edge18" class="edge">
<title>implicit_rate_1_input_old_forces/t&#45;&gt;integrate_slip_hardening</title>
<path fill="none" stroke="black" d="M2125,-2075.87C2125,-2034.22 2125,-1955.25 2125,-1888 2125,-1888 2125,-1888 2125,-645 2125,-584.6 2087.08,-526.83 2051.73,-486.11"/>
<polygon fill="black" stroke="black" points="2056.76,-481.22 2038.14,-471.09 2046.38,-490.62 2056.76,-481.22"/>
</g>
<!-- implicit_rate_1_output_residual/elastic_strain -->
<g id="node10" class="node">
<title>implicit_rate_1_output_residual/elastic_strain</title>
<polygon fill="#005401" fill-opacity="0.082353" stroke="#005401" stroke-opacity="0.313725" points="1594,-118 1378,-118 1378,-58 1594,-58 1594,-118"/>
<text text-anchor="middle" x="1486" y="-94.8" font-family="Courier New" font-size="24.00">elastic_strain</text>
<text text-anchor="middle" x="1486" y="-68.8" font-family="Courier New" font-size="24.00">[SR2]</text>
</g>
<!-- implicit_rate_1_output_residual/internal/slip_hardening -->
<g id="node11" class="node">
<title>implicit_rate_1_output_residual/internal/slip_hardening</title>
<polygon fill="#005401" fill-opacity="0.082353" stroke="#005401" stroke-opacity="0.313725" points="1956,-118 1612,-118 1612,-58 1956,-58 1956,-118"/>
<text text-anchor="middle" x="1784" y="-94.8" font-family="Courier New" font-size="24.00">internal/slip_hardening</text>
<text text-anchor="middle" x="1784" y="-68.8" font-family="Courier New" font-size="24.00">[Scalar]</text>
</g>
<!-- elastic_stretch_output_state/elastic_strain_rate -->
<g id="node13" class="node">
<title>elastic_stretch_output_state/elastic_strain_rate</title>
<polygon fill="#005401" fill-opacity="0.082353" stroke="#005401" stroke-opacity="0.313725" points="567,-670 351,-670 351,-622 567,-622 567,-670"/>
<text text-anchor="middle" x="459" y="-651.6" font-family="Courier New" font-size="18.00">elastic_strain_rate</text>
<text text-anchor="middle" x="459" y="-631.6" font-family="Courier New" font-size="18.00">[SR2]</text>
</g>
<!-- elastic_stretch&#45;&gt;elastic_stretch_output_state/elastic_strain_rate -->
<g id="edge5" class="edge">
<title>elastic_stretch&#45;&gt;elastic_stretch_output_state/elastic_strain_rate</title>
<path fill="none" stroke="black" d="M427.5,-747.8C433.29,-729.26 440.04,-707.67 445.8,-689.24"/>
<polygon fill="black" stroke="black" points="452.5,-691.28 451.78,-670.1 439.13,-687.1 452.5,-691.28"/>
</g>
<!-- elastic_stretch_output_state/elastic_strain_rate&#45;&gt;integrate_elastic_strain -->
<g id="edge14" class="edge">
<title>elastic_stretch_output_state/elastic_strain_rate&#45;&gt;integrate_elastic_strain</title>
<path fill="none" stroke="black" d="M502.6,-621.98C565.95,-588.53 685.23,-525.55 770.71,-480.42"/>
<polygon fill="black" stroke="black" points="773.98,-486.61 788.4,-471.08 767.45,-474.23 773.98,-486.61"/>
</g>
<!-- plastic_deformation_rate_output_state/internal/plastic_deformation_rate -->
<g id="node14" class="node">
<title>plastic_deformation_rate_output_state/internal/plastic_deformation_rate</title>
<polygon fill="#005401" fill-opacity="0.082353" stroke="#005401" stroke-opacity="0.313725" points="782.5,-1041 295.5,-1041 295.5,-981 782.5,-981 782.5,-1041"/>
<text text-anchor="middle" x="539" y="-1017.8" font-family="Courier New" font-size="24.00">internal/plastic_deformation_rate</text>
<text text-anchor="middle" x="539" y="-991.8" font-family="Courier New" font-size="24.00">[SR2]</text>
</g>
<!-- plastic_deformation_rate_output_state/internal/plastic_deformation_rate&#45;&gt;elastic_stretch -->
<g id="edge4" class="edge">
<title>plastic_deformation_rate_output_state/internal/plastic_deformation_rate&#45;&gt;elastic_stretch</title>
<path fill="none" stroke="black" d="M522.14,-980.73C503.51,-948.39 472.97,-895.38 449.09,-853.92"/>
<polygon fill="black" stroke="black" points="455.04,-850.22 438.99,-836.38 442.91,-857.21 455.04,-850.22"/>
</g>
<!-- elasticity_1_output_state/internal/cauchy_stress -->
<g id="node16" class="node">
<title>elasticity_1_output_state/internal/cauchy_stress</title>
<polygon fill="#005401" fill-opacity="0.082353" stroke="#005401" stroke-opacity="0.313725" points="1149,-1765 901,-1765 901,-1717 1149,-1717 1149,-1765"/>
<text text-anchor="middle" x="1025" y="-1746.6" font-family="Courier New" font-size="18.00">internal/cauchy_stress</text>
<text text-anchor="middle" x="1025" y="-1726.6" font-family="Courier New" font-size="18.00">[SR2]</text>
</g>
<!-- elasticity_1&#45;&gt;elasticity_1_output_state/internal/cauchy_stress -->
<g id="edge7" class="edge">
<title>elasticity_1&#45;&gt;elasticity_1_output_state/internal/cauchy_stress</title>
<path fill="none" stroke="black" d="M1025,-1842.8C1025,-1824.56 1025,-1803.36 1025,-1785.13"/>
<polygon fill="black" stroke="black" points="1032,-1785.1 1025,-1765.1 1018,-1785.1 1032,-1785.1"/>
</g>
<!-- resolved_shear -->
<g id="node26" class="node">
<title>resolved_shear</title>
<polygon fill="#003ec9" fill-opacity="0.207843" stroke="#003ec9" stroke-width="2" points="1196.5,-1566 853.5,-1566 853.5,-1478 1196.5,-1478 1196.5,-1566"/>
<text text-anchor="middle" x="1025" y="-1533.2" font-family="Courier New" font-size="36.00">resolved_shear</text>
<text text-anchor="middle" x="1025" y="-1493.2" font-family="Courier New" font-size="36.00">[ResolvedShear]</text>
</g>
<!-- elasticity_1_output_state/internal/cauchy_stress&#45;&gt;resolved_shear -->
<g id="edge28" class="edge">
<title>elasticity_1_output_state/internal/cauchy_stress&#45;&gt;resolved_shear</title>
<path fill="none" stroke="black" d="M1025,-1716.78C1025,-1685.89 1025,-1630.09 1025,-1586.27"/>
<polygon fill="black" stroke="black" points="1032,-1586.2 1025,-1566.2 1018,-1586.2 1032,-1586.2"/>
</g>
<!-- euler_rodrigues_1_output_state/orientation_matrix -->
<g id="node18" class="node">
<title>euler_rodrigues_1_output_state/orientation_matrix</title>
<polygon fill="#005401" fill-opacity="0.082353" stroke="#005401" stroke-opacity="0.313725" points="648,-1765 442,-1765 442,-1717 648,-1717 648,-1765"/>
<text text-anchor="middle" x="545" y="-1746.6" font-family="Courier New" font-size="18.00">orientation_matrix</text>
<text text-anchor="middle" x="545" y="-1726.6" font-family="Courier New" font-size="18.00">[R2]</text>
</g>
<!-- euler_rodrigues_1&#45;&gt;euler_rodrigues_1_output_state/orientation_matrix -->
<g id="edge9" class="edge">
<title>euler_rodrigues_1&#45;&gt;euler_rodrigues_1_output_state/orientation_matrix</title>
<path fill="none" stroke="black" d="M517.7,-1842.8C522.7,-1824.36 528.51,-1802.9 533.48,-1784.53"/>
<polygon fill="black" stroke="black" points="540.27,-1786.24 538.74,-1765.1 526.76,-1782.58 540.27,-1786.24"/>
</g>
<!-- plastic_deformation_rate -->
<g id="node24" class="node">
<title>plastic_deformation_rate</title>
<polygon fill="#003ec9" fill-opacity="0.207843" stroke="#003ec9" stroke-width="2" points="814.5,-1201 275.5,-1201 275.5,-1113 814.5,-1113 814.5,-1201"/>
<text text-anchor="middle" x="545" y="-1168.2" font-family="Courier New" font-size="36.00">plastic_deformation_rate</text>
<text text-anchor="middle" x="545" y="-1128.2" font-family="Courier New" font-size="36.00">[PlasticDeformationRate]</text>
</g>
<!-- euler_rodrigues_1_output_state/orientation_matrix&#45;&gt;plastic_deformation_rate -->
<g id="edge24" class="edge">
<title>euler_rodrigues_1_output_state/orientation_matrix&#45;&gt;plastic_deformation_rate</title>
<path fill="none" stroke="black" d="M545,-1716.88C545,-1677.21 545,-1593.64 545,-1523 545,-1523 545,-1523 545,-1375 545,-1323.32 545,-1264.71 545,-1221.44"/>
<polygon fill="black" stroke="black" points="552,-1221.23 545,-1201.23 538,-1221.23 552,-1221.23"/>
</g>
<!-- euler_rodrigues_1_output_state/orientation_matrix&#45;&gt;resolved_shear -->
<g id="edge27" class="edge">
<title>euler_rodrigues_1_output_state/orientation_matrix&#45;&gt;resolved_shear</title>
<path fill="none" stroke="black" d="M595.91,-1716.98C670.45,-1683.29 811.26,-1619.63 911.22,-1574.44"/>
<polygon fill="black" stroke="black" points="914.36,-1580.7 929.7,-1566.08 908.59,-1567.94 914.36,-1580.7"/>
</g>
<!-- integrate_elastic_strain_output_residual/elastic_strain -->
<g id="node20" class="node">
<title>integrate_elastic_strain_output_residual/elastic_strain</title>
<polygon fill="#005401" fill-opacity="0.082353" stroke="#005401" stroke-opacity="0.313725" points="1058,-311 894,-311 894,-263 1058,-263 1058,-311"/>
<text text-anchor="middle" x="976" y="-292.6" font-family="Courier New" font-size="18.00">elastic_strain</text>
<text text-anchor="middle" x="976" y="-272.6" font-family="Courier New" font-size="18.00">[SR2]</text>
</g>
<!-- integrate_elastic_strain&#45;&gt;integrate_elastic_strain_output_residual/elastic_strain -->
<g id="edge15" class="edge">
<title>integrate_elastic_strain&#45;&gt;integrate_elastic_strain_output_residual/elastic_strain</title>
<path fill="none" stroke="black" d="M903.25,-382.71C916.91,-364.93 932.61,-344.48 945.93,-327.15"/>
<polygon fill="black" stroke="black" points="951.65,-331.2 958.28,-311.07 940.54,-322.67 951.65,-331.2"/>
</g>
<!-- integrate_elastic_strain_output_residual/elastic_strain&#45;&gt;implicit_rate_1_output_residual/elastic_strain -->
<g id="edge16" class="edge">
<title>integrate_elastic_strain_output_residual/elastic_strain&#45;&gt;implicit_rate_1_output_residual/elastic_strain</title>
<path fill="none" stroke="black" stroke-dasharray="5,2" d="M1035.75,-262.92C1123.53,-229.01 1288.17,-165.42 1392.18,-125.24"/>
<polygon fill="black" stroke="black" points="1394.73,-131.76 1410.87,-118.02 1389.69,-118.7 1394.73,-131.76"/>
</g>
<!-- integrate_slip_hardening_output_residual/internal/slip_hardening -->
<g id="node22" class="node">
<title>integrate_slip_hardening_output_residual/internal/slip_hardening</title>
<polygon fill="#005401" fill-opacity="0.082353" stroke="#005401" stroke-opacity="0.313725" points="1993,-311 1735,-311 1735,-263 1993,-263 1993,-311"/>
<text text-anchor="middle" x="1864" y="-292.6" font-family="Courier New" font-size="18.00">internal/slip_hardening</text>
<text text-anchor="middle" x="1864" y="-272.6" font-family="Courier New" font-size="18.00">[Scalar]</text>
</g>
<!-- integrate_slip_hardening&#45;&gt;integrate_slip_hardening_output_residual/internal/slip_hardening -->
<g id="edge22" class="edge">
<title>integrate_slip_hardening&#45;&gt;integrate_slip_hardening_output_residual/internal/slip_hardening</title>
<path fill="none" stroke="black" d="M1951.85,-382.71C1934.93,-364.47 1915.4,-343.42 1899.07,-325.8"/>
<polygon fill="black" stroke="black" points="1904.13,-320.97 1885.4,-311.07 1893.87,-330.5 1904.13,-320.97"/>
</g>
<!-- integrate_slip_hardening_output_residual/internal/slip_hardening&#45;&gt;implicit_rate_1_output_residual/internal/slip_hardening -->
<g id="edge23" class="edge">
<title>integrate_slip_hardening_output_residual/internal/slip_hardening&#45;&gt;implicit_rate_1_output_residual/internal/slip_hardening</title>
<path fill="none" stroke="black" stroke-dasharray="5,2" d="M1854.51,-262.63C1841.97,-231.76 1819.6,-176.67 1803.41,-136.8"/>
<polygon fill="black" stroke="black" points="1809.82,-133.99 1795.81,-118.09 1796.85,-139.26 1809.82,-133.99"/>
</g>
<!-- voce_hardening_output_state/internal/slip_hardening_rate -->
<g id="node23" class="node">
<title>voce_hardening_output_state/internal/slip_hardening_rate</title>
<polygon fill="#005401" fill-opacity="0.082353" stroke="#005401" stroke-opacity="0.313725" points="1879,-676 1463,-676 1463,-616 1879,-616 1879,-676"/>
<text text-anchor="middle" x="1671" y="-652.8" font-family="Courier New" font-size="24.00">internal/slip_hardening_rate</text>
<text text-anchor="middle" x="1671" y="-626.8" font-family="Courier New" font-size="24.00">[Scalar]</text>
</g>
<!-- voce_hardening_output_state/internal/slip_hardening_rate&#45;&gt;integrate_slip_hardening -->
<g id="edge21" class="edge">
<title>voce_hardening_output_state/internal/slip_hardening_rate&#45;&gt;integrate_slip_hardening</title>
<path fill="none" stroke="black" d="M1713.96,-615.96C1764.35,-581.9 1848.96,-524.7 1911.63,-482.33"/>
<polygon fill="black" stroke="black" points="1915.63,-488.08 1928.28,-471.08 1907.79,-476.48 1915.63,-488.08"/>
</g>
<!-- plastic_deformation_rate&#45;&gt;plastic_deformation_rate_output_state/internal/plastic_deformation_rate -->
<g id="edge26" class="edge">
<title>plastic_deformation_rate&#45;&gt;plastic_deformation_rate_output_state/internal/plastic_deformation_rate</title>
<path fill="none" stroke="black" d="M543.2,-1112.8C542.52,-1096.58 541.75,-1078.02 541.05,-1061.29"/>
<polygon fill="black" stroke="black" points="548.04,-1060.73 540.21,-1041.04 534.05,-1061.32 548.04,-1060.73"/>
</g>
<!-- slip_rule_output_state/internal/slip_rates -->
<g id="node25" class="node">
<title>slip_rule_output_state/internal/slip_rates</title>
<polygon fill="#005401" fill-opacity="0.082353" stroke="#005401" stroke-opacity="0.313725" points="1605.5,-1406 1318.5,-1406 1318.5,-1346 1605.5,-1346 1605.5,-1406"/>
<text text-anchor="middle" x="1462" y="-1382.8" font-family="Courier New" font-size="24.00">internal/slip_rates</text>
<text text-anchor="middle" x="1462" y="-1356.8" font-family="Courier New" font-size="24.00">[Tensor]</text>
</g>
<!-- slip_rule_output_state/internal/slip_rates&#45;&gt;plastic_deformation_rate -->
<g id="edge25" class="edge">
<title>slip_rule_output_state/internal/slip_rates&#45;&gt;plastic_deformation_rate</title>
<path fill="none" stroke="black" d="M1376.23,-1345.91C1321.14,-1327.83 1247.82,-1304.9 1182,-1288 1058.76,-1256.36 920.54,-1227.38 804.43,-1204.85"/>
<polygon fill="black" stroke="black" points="805.47,-1197.92 784.51,-1201 802.82,-1211.67 805.47,-1197.92"/>
</g>
<!-- sum_slip_rates -->
<g id="node31" class="node">
<title>sum_slip_rates</title>
<polygon fill="#003ec9" fill-opacity="0.207843" stroke="#003ec9" stroke-width="2" points="1709.5,-1201 1388.5,-1201 1388.5,-1113 1709.5,-1113 1709.5,-1201"/>
<text text-anchor="middle" x="1549" y="-1168.2" font-family="Courier New" font-size="36.00">sum_slip_rates</text>
<text text-anchor="middle" x="1549" y="-1128.2" font-family="Courier New" font-size="36.00">[SumSlipRates]</text>
</g>
<!-- slip_rule_output_state/internal/slip_rates&#45;&gt;sum_slip_rates -->
<g id="edge35" class="edge">
<title>slip_rule_output_state/internal/slip_rates&#45;&gt;sum_slip_rates</title>
<path fill="none" stroke="black" d="M1473.73,-1345.73C1486.59,-1313.68 1507.57,-1261.33 1524.13,-1220.04"/>
<polygon fill="black" stroke="black" points="1530.66,-1222.55 1531.61,-1201.38 1517.67,-1217.34 1530.66,-1222.55"/>
</g>
<!-- resolved_shear_output_state/internal/resolved_shears -->
<g id="node27" class="node">
<title>resolved_shear_output_state/internal/resolved_shears</title>
<polygon fill="#005401" fill-opacity="0.082353" stroke="#005401" stroke-opacity="0.313725" points="1169.5,-1400 900.5,-1400 900.5,-1352 1169.5,-1352 1169.5,-1400"/>
<text text-anchor="middle" x="1035" y="-1381.6" font-family="Courier New" font-size="18.00">internal/resolved_shears</text>
<text text-anchor="middle" x="1035" y="-1361.6" font-family="Courier New" font-size="18.00">[Tensor]</text>
</g>
<!-- resolved_shear&#45;&gt;resolved_shear_output_state/internal/resolved_shears -->
<g id="edge29" class="edge">
<title>resolved_shear&#45;&gt;resolved_shear_output_state/internal/resolved_shears</title>
<path fill="none" stroke="black" d="M1028,-1477.8C1029.27,-1459.56 1030.74,-1438.36 1032,-1420.13"/>
<polygon fill="black" stroke="black" points="1038.99,-1420.54 1033.4,-1400.1 1025.03,-1419.57 1038.99,-1420.54"/>
</g>
<!-- slip_rule -->
<g id="node28" class="node">
<title>slip_rule</title>
<polygon fill="#003ec9" fill-opacity="0.207843" stroke="#003ec9" stroke-width="2" points="1666,-1566 1258,-1566 1258,-1478 1666,-1478 1666,-1566"/>
<text text-anchor="middle" x="1462" y="-1533.2" font-family="Courier New" font-size="36.00">slip_rule</text>
<text text-anchor="middle" x="1462" y="-1493.2" font-family="Courier New" font-size="36.00">[PowerLawSlipRule]</text>
</g>
<!-- resolved_shear_output_state/internal/resolved_shears&#45;&gt;slip_rule -->
<g id="edge30" class="edge">
<title>resolved_shear_output_state/internal/resolved_shears&#45;&gt;slip_rule</title>
<path fill="none" stroke="black" d="M1103.39,-1400.06C1160.38,-1419.28 1243.57,-1447.34 1315.48,-1471.59"/>
<polygon fill="black" stroke="black" points="1313.28,-1478.23 1334.46,-1477.99 1317.75,-1464.97 1313.28,-1478.23"/>
</g>
<!-- slip_rule&#45;&gt;slip_rule_output_state/internal/slip_rates -->
<g id="edge32" class="edge">
<title>slip_rule&#45;&gt;slip_rule_output_state/internal/slip_rates</title>
<path fill="none" stroke="black" d="M1462,-1477.8C1462,-1461.58 1462,-1443.02 1462,-1426.29"/>
<polygon fill="black" stroke="black" points="1469,-1426.04 1462,-1406.04 1455,-1426.04 1469,-1426.04"/>
</g>
<!-- slip_strength_output_state/internal/slip_strengths -->
<g id="node29" class="node">
<title>slip_strength_output_state/internal/slip_strengths</title>
<polygon fill="#005401" fill-opacity="0.082353" stroke="#005401" stroke-opacity="0.313725" points="1747,-1771 1403,-1771 1403,-1711 1747,-1711 1747,-1771"/>
<text text-anchor="middle" x="1575" y="-1747.8" font-family="Courier New" font-size="24.00">internal/slip_strengths</text>
<text text-anchor="middle" x="1575" y="-1721.8" font-family="Courier New" font-size="24.00">[Tensor]</text>
</g>
<!-- slip_strength_output_state/internal/slip_strengths&#45;&gt;slip_rule -->
<g id="edge31" class="edge">
<title>slip_strength_output_state/internal/slip_strengths&#45;&gt;slip_rule</title>
<path fill="none" stroke="black" d="M1559.76,-1710.73C1542.95,-1678.46 1515.43,-1625.61 1493.87,-1584.2"/>
<polygon fill="black" stroke="black" points="1500.04,-1580.89 1484.59,-1566.38 1487.62,-1587.35 1500.04,-1580.89"/>
</g>
<!-- slip_strength&#45;&gt;slip_strength_output_state/internal/slip_strengths -->
<g id="edge34" class="edge">
<title>slip_strength&#45;&gt;slip_strength_output_state/internal/slip_strengths</title>
<path fill="none" stroke="black" d="M1599.5,-1842.8C1595.51,-1826.39 1590.95,-1807.61 1586.84,-1790.73"/>
<polygon fill="black" stroke="black" points="1593.58,-1788.82 1582.06,-1771.04 1579.98,-1792.13 1593.58,-1788.82"/>
</g>
<!-- sum_slip_rates_output_state/internal/sum_slip_rates -->
<g id="node32" class="node">
<title>sum_slip_rates_output_state/internal/sum_slip_rates</title>
<polygon fill="#005401" fill-opacity="0.082353" stroke="#005401" stroke-opacity="0.313725" points="1686,-1035 1428,-1035 1428,-987 1686,-987 1686,-1035"/>
<text text-anchor="middle" x="1557" y="-1016.6" font-family="Courier New" font-size="18.00">internal/sum_slip_rates</text>
<text text-anchor="middle" x="1557" y="-996.6" font-family="Courier New" font-size="18.00">[Scalar]</text>
</g>
<!-- sum_slip_rates&#45;&gt;sum_slip_rates_output_state/internal/sum_slip_rates -->
<g id="edge36" class="edge">
<title>sum_slip_rates&#45;&gt;sum_slip_rates_output_state/internal/sum_slip_rates</title>
<path fill="none" stroke="black" d="M1551.4,-1112.8C1552.41,-1094.56 1553.59,-1073.36 1554.6,-1055.13"/>
<polygon fill="black" stroke="black" points="1561.6,-1055.46 1555.72,-1035.1 1547.62,-1054.68 1561.6,-1055.46"/>
</g>
<!-- sum_slip_rates_output_state/internal/sum_slip_rates&#45;&gt;voce_hardening -->
<g id="edge38" class="edge">
<title>sum_slip_rates_output_state/internal/sum_slip_rates&#45;&gt;voce_hardening</title>
<path fill="none" stroke="black" d="M1563.85,-986.78C1573.02,-955.68 1589.64,-899.33 1602.6,-855.38"/>
<polygon fill="black" stroke="black" points="1609.32,-857.36 1608.26,-836.2 1595.89,-853.4 1609.32,-857.36"/>
</g>
<!-- voce_hardening&#45;&gt;voce_hardening_output_state/internal/slip_hardening_rate -->
<g id="edge39" class="edge">
<title>voce_hardening&#45;&gt;voce_hardening_output_state/internal/slip_hardening_rate</title>
<path fill="none" stroke="black" d="M1636,-747.8C1641.76,-731.21 1648.36,-712.19 1654.27,-695.17"/>
<polygon fill="black" stroke="black" points="1660.97,-697.23 1660.92,-676.04 1647.74,-692.64 1660.97,-697.23"/>
</g>
</g>
</svg>
